<svg version="1.1" id="图层_1" xmlns="http://www.w3.org/2000/svg" xmlns:xlink="http://www.w3.org/1999/xlink" x="0px" y="0px"
        width="42.5px" height="42.5px" viewBox="121.667 0 42.5 42.5" enable-background="new 121.667 0 42.5 42.5" xml:space="preserve">
   <circle fill="#4C9DD7" cx="142.918" cy="21.203" r="20.677"/>
   <path fill-rule="evenodd" clip-rule="evenodd" fill="none" stroke="#FFFFFF" stroke-width="1.5" stroke-miterlimit="10" d="
       M131.334,14.446v18.876h22v-21.49l-5.244-5.508h-9.297 M131.334,14.446 M138.793,6.325"/>
   <path fill="#FFFFFF" d="M138.26,12.405c0.283,0.283,0.295,0.729,0.029,0.994l0,0c-0.266,0.266-0.711,0.252-0.994-0.031l-4.561-4.561
       c-0.285-0.283-0.297-0.729-0.031-0.994l0,0c0.268-0.266,0.711-0.252,0.994,0.029L138.26,12.405z"/>
   <path fill="#FFFFFF" d="M138.725,13.184c0.354,0,0.643,0.289,0.643,0.643l0,0c0,0.355-0.289,0.643-0.643,0.643h-4.154
       c-0.354,0-0.641-0.287-0.641-0.643l0,0c0-0.354,0.287-0.643,0.641-0.643H138.725z"/>
   <path fill="#FFFFFF" d="M139.391,13.823c0,0.354-0.289,0.643-0.645,0.643l0,0c-0.354,0-0.641-0.289-0.641-0.643V9.67
       c0-0.355,0.287-0.643,0.641-0.643l0,0c0.355,0,0.645,0.287,0.645,0.643V13.823z"/>
   <text transform="matrix(1 0 0 1 133.8584 26.3721)" fill="#FFFFFF" font-family="'ArialMT'" font-size="10.9492">csv</text>
   <path fill="#FFFFFF" d="M149.168,11.03c0,0.328-0.266,0.594-0.594,0.594h-5.5c-0.328,0-0.594-0.266-0.594-0.594l0,0
       c0-0.328,0.266-0.594,0.594-0.594h5.5C148.902,10.436,149.168,10.702,149.168,11.03L149.168,11.03z"/>
   <path fill="#FFFFFF" d="M149.168,13.905c0,0.328-0.266,0.594-0.594,0.594h-5.5c-0.328,0-0.594-0.266-0.594-0.594l0,0
       c0-0.328,0.266-0.594,0.594-0.594h5.5C148.902,13.311,149.168,13.577,149.168,13.905L149.168,13.905z"/>
   </svg>