<svg version="1.1" id="图层_1" xmlns="http://www.w3.org/2000/svg" xmlns:xlink="http://www.w3.org/1999/xlink" x="0px" y="0px"
        width="42.5px" height="42.5px" viewBox="60.167 0 42.5 42.5" enable-background="new 60.167 0 42.5 42.5" xml:space="preserve">
<circle fill="#4C9DD7" cx="81.417" cy="21.204" r="20.678"/>
<path fill-rule="evenodd" clip-rule="evenodd" fill="none" stroke="#FFFFFF" stroke-width="1.5" stroke-miterlimit="10" d="
   M69.833,14.447v18.877h22V11.833l-5.245-5.509h-9.296 M69.833,14.447 M77.292,6.325"/>
<path fill="#FFFFFF" d="M76.758,12.405c0.283,0.283,0.296,0.729,0.03,0.995l0,0c-0.267,0.266-0.711,0.252-0.994-0.03l-4.562-4.562
   c-0.284-0.283-0.297-0.728-0.03-0.995l0,0c0.267-0.266,0.711-0.252,0.994,0.031L76.758,12.405z"/>
<path fill="#FFFFFF" d="M77.223,13.186c0.354,0,0.643,0.288,0.643,0.643l0,0c0,0.355-0.288,0.643-0.643,0.643h-4.153
   c-0.354,0-0.642-0.288-0.642-0.643l0,0c0-0.355,0.287-0.643,0.642-0.643H77.223z"/>
<path fill="#FFFFFF" d="M77.889,13.824c0,0.354-0.288,0.643-0.644,0.643l0,0c-0.354,0-0.642-0.288-0.642-0.643V9.671
   c0-0.355,0.288-0.643,0.642-0.643l0,0c0.355,0,0.644,0.288,0.644,0.643V13.824z"/>
<text transform="matrix(1 0 0 1 72.9883 26.3721)" fill="#FFFFFF" font-family="'ArialMT'" font-size="8">jdbc</text>
<path fill="#FFFFFF" d="M87.667,11.031c0,0.328-0.266,0.594-0.594,0.594h-5.5c-0.328,0-0.594-0.266-0.594-0.594l0,0
   c0-0.328,0.266-0.594,0.594-0.594h5.5C87.401,10.438,87.667,10.703,87.667,11.031L87.667,11.031z"/>
<path fill="#FFFFFF" d="M87.667,13.906c0,0.328-0.266,0.594-0.594,0.594h-5.5c-0.328,0-0.594-0.266-0.594-0.594l0,0
   c0-0.328,0.266-0.594,0.594-0.594h5.5C87.401,13.313,87.667,13.578,87.667,13.906L87.667,13.906z"/>
</svg>