<svg version="1.1" id="图层_1" xmlns="http://www.w3.org/2000/svg" xmlns:xlink="http://www.w3.org/1999/xlink" x="0px" y="0px"
        width="42.5px" height="42.5px" viewBox="182 0 42.5 42.5" enable-background="new 182 0 42.5 42.5" xml:space="preserve">
   <circle fill="#4C9DD7" cx="203.25" cy="21.204" r="20.678"/>
   <path fill-rule="evenodd" clip-rule="evenodd" fill="none" stroke="#FFFFFF" stroke-width="1.5" stroke-miterlimit="10" d="
       M191.666,14.447v18.877h22v-21.49l-5.245-5.51h-9.296 M191.666,14.447 M199.125,6.324"/>
   <path fill="#FFFFFF" d="M198.591,12.405c0.283,0.283,0.296,0.729,0.03,0.995l0,0c-0.267,0.266-0.711,0.252-0.994-0.031l-4.562-4.561
       c-0.284-0.283-0.297-0.729-0.03-0.995l0,0c0.267-0.266,0.711-0.252,0.994,0.03L198.591,12.405z"/>
   <path fill="#FFFFFF" d="M199.056,13.186c0.354,0,0.643,0.288,0.643,0.643l0,0c0,0.355-0.288,0.643-0.643,0.643h-4.153
       c-0.354,0-0.642-0.287-0.642-0.643l0,0c0-0.354,0.287-0.643,0.642-0.643H199.056z"/>
   <path fill="#FFFFFF" d="M199.722,13.824c0,0.354-0.288,0.643-0.644,0.643l0,0c-0.354,0-0.642-0.289-0.642-0.643V9.672
       c0-0.355,0.288-0.643,0.642-0.643l0,0c0.355,0,0.644,0.287,0.644,0.643V13.824z"/>
   <text transform="matrix(1 0 0 1 193.5449 24.3721)"><tspan x="0" y="0" fill="#FFFFFF" font-family="'ArialMT'" font-size="9">Rest</tspan><tspan x="6" y="5.489" fill="#FFFFFF" font-family="'ArialMT'" font-size="5">Api</tspan></text>
   <path fill="#FFFFFF" d="M209.5,11.031c0,0.328-0.266,0.594-0.594,0.594h-5.5c-0.328,0-0.594-0.266-0.594-0.594l0,0
       c0-0.328,0.266-0.594,0.594-0.594h5.5C209.234,10.438,209.5,10.703,209.5,11.031L209.5,11.031z"/>
   <path fill="#FFFFFF" d="M209.5,13.906c0,0.328-0.266,0.594-0.594,0.594h-5.5c-0.328,0-0.594-0.266-0.594-0.594l0,0
       c0-0.328,0.266-0.594,0.594-0.594h5.5C209.234,13.313,209.5,13.578,209.5,13.906L209.5,13.906z"/>
   <text transform="matrix(1 0 0 1 183.1289 52.499)" fill="#4C4C4C" font-family="'ArialMT'" font-size="11">RestApi</text>
   </svg>