<svg version="1.1" id="图层_1" xmlns="http://www.w3.org/2000/svg" xmlns:xlink="http://www.w3.org/1999/xlink" x="0px" y="0px"
	 width="43.834px" height="43.834px" viewBox="274.75 0 43.834 43.834" enable-background="new 274.75 0 43.834 43.834"
	 xml:space="preserve">
<path fill="#20D6E6" d="M308.268,5.845c2.366-0.001,4.281,1.914,4.28,4.281l-0.001,23.053c0,2.362-1.914,4.279-4.278,4.279h-23.053
	c-2.365-0.001-4.281-1.917-4.28-4.281V10.125c-0.001-2.366,1.914-4.282,4.279-4.279L308.268,5.845z"/>
<g>
	<g>
		<path fill="#FFFFFF" d="M291.887,30.415l9.397-15.443c0.077-0.128,0.243-0.171,0.373-0.098l0.864,0.487
			c0.066,0.036,0.114,0.099,0.134,0.171c0.019,0.073,0.008,0.15-0.032,0.216l-9.396,15.44c-0.079,0.129-0.244,0.173-0.376,0.098
			l-0.864-0.486c-0.065-0.037-0.113-0.098-0.132-0.172C291.835,30.558,291.847,30.479,291.887,30.415L291.887,30.415z
			 M287.654,23.029l4.164-3.965c0.044-0.042,0.054-0.109,0.023-0.161l-0.053-0.088l-0.002-0.003l-0.529-0.871
			c-0.044-0.071-0.118-0.119-0.203-0.131c-0.084-0.01-0.168,0.018-0.229,0.076l-4.274,4.071c-0.296,0.279-0.466,0.667-0.469,1.074
			s0.16,0.798,0.453,1.081l4.274,4.16c0.062,0.058,0.146,0.086,0.229,0.076c0.085-0.011,0.159-0.059,0.203-0.131l0.531-0.872
			c0.067-0.111,0.049-0.253-0.045-0.344L287.654,23.029z M307.85,21.958l-4.275-4.071c-0.062-0.058-0.146-0.086-0.229-0.076
			c-0.085,0.012-0.159,0.06-0.203,0.131l-0.527,0.871l-0.002,0.003l-0.055,0.088c-0.031,0.053-0.022,0.122,0.023,0.164l4.167,3.962
			l-4.077,3.974c-0.094,0.09-0.11,0.233-0.044,0.343l0.529,0.872c0.044,0.072,0.118,0.121,0.201,0.131
			c0.083,0.012,0.169-0.017,0.229-0.076l4.278-4.158c0.292-0.284,0.456-0.674,0.453-1.082s-0.173-0.794-0.469-1.074V21.958z
			 M307.85,21.958"/>
	</g>
</g>
</svg>
