<svg version="1.1" id="图层_1" xmlns="http://www.w3.org/2000/svg" xmlns:xlink="http://www.w3.org/1999/xlink" x="0px" y="0px"
	 width="43.834px" height="43.834px" viewBox="219.75 0 43.834 43.834" enable-background="new 219.75 0 43.834 43.834"
	 xml:space="preserve">
<path fill="#20D6E6" d="M253.268,5.845c2.366-0.001,4.281,1.914,4.28,4.281l-0.001,23.053c0,2.362-1.914,4.279-4.278,4.279h-23.053
	c-2.365-0.001-4.281-1.917-4.28-4.281V10.125c-0.001-2.366,1.914-4.282,4.279-4.279L253.268,5.845z"/>
<g>
	<g>
		<path fill="#FFFFFF" d="M253.442,19.937c-0.113-1.117-1.025-1.984-2.147-2.041h-0.105c-0.757-0.013-1.36-0.633-1.352-1.39
			c0.006-0.111,0.027-0.223,0.063-0.328c0.031-0.106,0.06-0.176,0.06-0.178c0.478-1.101,0.124-2.386-0.851-3.087l-0.025-0.019
			c-0.02-0.014-0.04-0.027-0.062-0.039l-2.646-1.495l-0.043-0.022l-0.078-0.038l-0.022-0.012c-0.315-0.137-0.656-0.206-1-0.204
			c-0.736-0.005-1.439,0.306-1.933,0.853c-0.263,0.29-0.57,0.536-0.91,0.729c-0.17,0.091-0.374,0.091-0.545,0
			c-0.331-0.189-0.633-0.429-0.894-0.709c-0.492-0.54-1.19-0.845-1.922-0.84c-0.35-0.001-0.697,0.072-1.017,0.216l-0.026,0.013
			c-0.021,0.01-0.043,0.021-0.063,0.031l-2.553,1.451l-0.044,0.026l-0.071,0.049l-0.021,0.015c-0.97,0.7-1.323,1.98-0.848,3.08
			c0.063,0.164,0.104,0.336,0.123,0.511c0.009,0.756-0.595,1.377-1.351,1.389h-0.105c-1.122,0.057-2.034,0.924-2.148,2.041
			c-0.145,0.753-0.224,1.517-0.236,2.283c0.014,0.766,0.092,1.529,0.235,2.282c0.114,1.115,1.025,1.982,2.146,2.04h0.108
			c0.755,0.012,1.358,0.632,1.35,1.388c-0.006,0.111-0.027,0.223-0.063,0.329c-0.017,0.06-0.036,0.119-0.059,0.177
			c-0.479,1.101-0.126,2.388,0.85,3.089l0.025,0.02c0.021,0.014,0.043,0.027,0.064,0.041l2.694,1.51l0.043,0.023l0.082,0.039
			l0.021,0.008c0.314,0.137,0.653,0.209,0.996,0.207c0.722,0.004,1.413-0.291,1.908-0.814c0.247-0.26,0.531-0.482,0.844-0.658
			c0.091-0.057,0.196-0.086,0.304-0.086c0.107,0.002,0.213,0.027,0.307,0.078c0.313,0.172,0.597,0.391,0.844,0.646
			c0.495,0.516,1.18,0.807,1.895,0.803c0.35,0.002,0.695-0.07,1.016-0.211l0.025-0.012c0.021-0.01,0.044-0.02,0.064-0.031
			l2.603-1.471l0.042-0.027l0.077-0.051c0.986-0.695,1.35-1.986,0.869-3.097c-0.023-0.058-0.044-0.12-0.063-0.183
			c-0.035-0.105-0.056-0.216-0.062-0.327c-0.01-0.756,0.594-1.378,1.351-1.39h0.117c1.117-0.063,2.022-0.929,2.134-2.042
			c0.144-0.752,0.224-1.515,0.238-2.28C253.666,21.454,253.587,20.69,253.442,19.937L253.442,19.937z M252.207,24.198
			c0,0.43-0.312,0.794-0.735,0.863h-0.121c-1.576,0.014-2.844,1.3-2.835,2.876c0.005,0.254,0.046,0.507,0.122,0.749
			c0.035,0.122,0.077,0.239,0.125,0.356c0.198,0.469,0.053,1.014-0.354,1.322l-0.006,0.002l-0.007,0.006l-2.62,1.479l-0.007,0.012
			h-0.005c-0.449,0.178-0.962,0.07-1.304-0.271c-0.579-0.652-1.362-1.09-2.222-1.236c-0.868,0.15-1.657,0.598-2.235,1.262
			c-0.339,0.344-0.85,0.455-1.3,0.279h-0.016l-2.713-1.518l-0.006-0.004l-0.007-0.004c-0.407-0.307-0.554-0.852-0.355-1.322
			c0.049-0.115,0.09-0.234,0.124-0.356c0.077-0.242,0.118-0.495,0.124-0.749c0.008-1.575-1.26-2.861-2.836-2.876h-0.108
			c-0.419-0.079-0.729-0.437-0.747-0.862c-0.131-0.673-0.202-1.355-0.216-2.041c0.014-0.686,0.085-1.367,0.216-2.04
			c0.02-0.426,0.328-0.783,0.747-0.862h0.107c1.576-0.015,2.845-1.3,2.837-2.877c-0.006-0.254-0.048-0.506-0.124-0.748
			c-0.035-0.122-0.076-0.242-0.124-0.359c-0.198-0.47-0.053-1.014,0.353-1.321l0.007-0.005h0.005l2.573-1.462l0.005-0.004h0.007
			c0.452-0.182,0.969-0.067,1.303,0.287c0.306,0.33,0.652,0.62,1.03,0.863c0.364,0.262,0.793,0.419,1.241,0.453
			c0.855,0,1.869-0.876,2.287-1.339c0.332-0.355,0.847-0.473,1.301-0.295h0.006l0.005,0.003l2.667,1.496l0.006,0.004l0.007,0.004
			c0.406,0.308,0.552,0.853,0.354,1.321c-0.048,0.118-0.089,0.238-0.124,0.359c-0.076,0.243-0.118,0.495-0.123,0.749
			c-0.009,1.577,1.259,2.862,2.835,2.877h0.105c0.421,0.078,0.731,0.436,0.75,0.862c0.131,0.674,0.203,1.356,0.216,2.042
			C252.407,22.853,252.335,23.53,252.207,24.198L252.207,24.198z M247.007,20.676c0-0.072-0.013-0.145-0.038-0.212
			c-0.461-1.106-1.322-1.998-2.413-2.497c-0.616-0.293-1.291-0.445-1.975-0.445c-1.908,0.012-3.621,1.171-4.342,2.938
			c-0.021,0.056-0.032,0.113-0.035,0.172c-0.379,1.004-0.418,2.104-0.109,3.132c-0.002,0.064,0.007,0.129,0.026,0.191
			c0.637,1.926,2.429,3.231,4.457,3.249c0.961,0,1.898-0.3,2.682-0.858c0.853-0.583,1.493-1.427,1.826-2.405
			c0.022-0.071,0.03-0.146,0.025-0.221c0.287-1.001,0.25-2.066-0.104-3.045V20.676z M244.325,25.507
			c-1.309,0.734-2.938,0.565-4.068-0.422c-1.134-0.994-1.535-2.586-1.006-3.998c0.521-1.41,1.867-2.344,3.37-2.336
			c0.352,0.002,0.701,0.056,1.035,0.161c1.341,0.469,2.289,1.672,2.432,3.085C246.231,23.41,245.544,24.778,244.325,25.507
			L244.325,25.507z M244.325,25.507"/>
	</g>
</g>
</svg>
