<svg version="1.1" id="图层_1" xmlns="http://www.w3.org/2000/svg" xmlns:xlink="http://www.w3.org/1999/xlink" x="0px" y="0px"
	 width="43.834px" height="43.834px" viewBox="109.667 0 43.834 43.834" enable-background="new 109.667 0 43.834 43.834"
	 xml:space="preserve">
<path fill="#7C5AC2" d="M143.185,5.845c2.366-0.001,4.281,1.914,4.28,4.281l-0.001,23.053c0,2.362-1.914,4.279-4.278,4.279h-23.053
	c-2.365-0.001-4.281-1.917-4.28-4.281V10.125c-0.001-2.366,1.914-4.282,4.279-4.279L143.185,5.845z"/>
<path fill="#FFFFFF" d="M130.863,20.877c0.359,0.359,0.344,0.955-0.033,1.332l-8.09,8.09c-0.378,0.378-0.975,0.394-1.333,0.034l0,0
	c-0.357-0.357-0.342-0.953,0.036-1.331l8.089-8.091C129.911,20.534,130.506,20.519,130.863,20.877L130.863,20.877z"/>
<path fill="#FFFFFF" d="M130.86,22.19c-0.358,0.359-0.955,0.343-1.332-0.034l-8.09-8.089c-0.378-0.378-0.394-0.975-0.034-1.333l0,0
	c0.357-0.358,0.953-0.343,1.331,0.036l8.091,8.089C131.203,21.237,131.219,21.832,130.86,22.19L130.86,22.19z"/>
<path fill="#FFFFFF" d="M141.568,28.211c0.001,0.507-0.433,0.918-0.966,0.918h-11.44c-0.535-0.001-0.968-0.411-0.967-0.918l0,0
	c0-0.505,0.432-0.916,0.967-0.916l11.44-0.001C141.137,27.295,141.569,27.705,141.568,28.211L141.568,28.211z"/>
</svg>
