<svg version="1.1" id="图层_1" xmlns="http://www.w3.org/2000/svg" xmlns:xlink="http://www.w3.org/1999/xlink" x="0px" y="0px"
	 width="43.834px" height="43.834px" viewBox="165.083 0 43.834 43.834" enable-background="new 165.083 0 43.834 43.834"
	 xml:space="preserve">
<path fill="#20D6E6" d="M198.601,5.845c2.366-0.001,4.281,1.914,4.28,4.281l-0.001,23.053c0,2.362-1.914,4.279-4.278,4.279h-23.053
	c-2.365-0.001-4.281-1.917-4.28-4.281V10.125c-0.001-2.366,1.914-4.282,4.279-4.279L198.601,5.845z"/>
<g>
	<g>
		<path fill="#FFFFFF" d="M187.369,12.033c0.964,0,1.852,0.237,2.663,0.711c0.813,0.474,1.457,1.118,1.932,1.932
			c0.474,0.812,0.712,1.7,0.711,2.662v2.653c0,0.737-0.144,1.434-0.429,2.092c-0.286,0.659-0.683,1.232-1.195,1.721
			c1.345,0.211,2.541,0.522,3.586,0.936c1.045,0.413,1.864,0.9,2.456,1.461c0.592,0.562,0.888,1.154,0.888,1.776v1.741
			c0,0.732-0.26,1.357-0.777,1.875c-0.518,0.519-1.144,0.777-1.875,0.777h-15.917c-0.732,0-1.357-0.259-1.876-0.777
			c-0.519-0.518-0.777-1.143-0.777-1.875v-1.748c0-0.622,0.296-1.213,0.888-1.775c0.592-0.563,1.409-1.05,2.452-1.461
			c1.043-0.412,2.237-0.722,3.583-0.929c-0.508-0.494-0.902-1.067-1.188-1.724c-0.285-0.657-0.428-1.353-0.429-2.089v-2.653
			c0-0.962,0.238-1.851,0.713-2.662c0.474-0.813,1.117-1.458,1.93-1.932C185.52,12.27,186.406,12.033,187.369,12.033L187.369,12.033
			z M187.369,25.297c-1.279,0-2.516,0.102-3.706,0.307c-1.19,0.206-2.229,0.492-3.112,0.86c-0.354,0.147-0.671,0.304-0.95,0.47
			c-0.278,0.166-0.49,0.315-0.636,0.449c-0.145,0.134-0.254,0.251-0.327,0.35c-0.074,0.099-0.11,0.178-0.11,0.238v1.748
			c0,0.244,0.086,0.453,0.259,0.625c0.173,0.173,0.382,0.259,0.625,0.259h15.917c0.244,0,0.453-0.086,0.626-0.259
			c0.172-0.172,0.259-0.381,0.259-0.625v-1.741c0-0.06-0.037-0.14-0.11-0.239c-0.074-0.099-0.184-0.215-0.329-0.348
			c-0.145-0.134-0.355-0.284-0.635-0.45c-0.279-0.165-0.597-0.325-0.95-0.476c-0.884-0.368-1.921-0.655-3.112-0.86
			C189.886,25.399,188.649,25.297,187.369,25.297L187.369,25.297z M187.369,13.801c-0.976,0-1.809,0.346-2.5,1.036
			c-0.69,0.691-1.036,1.525-1.036,2.501v2.653c0,0.977,0.345,1.811,1.036,2.501s1.524,1.036,2.5,1.036
			c0.977,0,1.811-0.346,2.502-1.036c0.69-0.691,1.036-1.525,1.036-2.501v-2.653c0-0.977-0.346-1.81-1.036-2.501
			C189.18,14.147,188.346,13.801,187.369,13.801L187.369,13.801z M187.369,13.801"/>
	</g>
</g>
</svg>
