<svg version="1.1" id="图层_1" xmlns="http://www.w3.org/2000/svg" xmlns:xlink="http://www.w3.org/1999/xlink" x="0px" y="0px"
        width="42.5px" height="42.5px" viewBox="56.432 144.91 42.5 42.5" enable-background="new 56.432 144.91 42.5 42.5"
        xml:space="preserve">
   <circle fill="#7C5AC2" cx="77.681" cy="166.139" r="20.678"/>
   <path fill="none" stroke="#FFFFFF" stroke-width="1.4" stroke-miterlimit="10" d="M70.213,172.698v-14.479
       c0-0.538,0.415-0.973,0.93-0.973h13.016c0.515,0,0.93,0.435,0.93,0.973v12.307"/>
   <path fill="none" stroke="#FFFFFF" stroke-width="1.4" stroke-miterlimit="10" d="M85.784,175.365H72.163
       c-1.088,0-1.97-1.086-1.97-2.424l0,0c0-1.343,0.882-2.426,1.97-2.426h13.621"/>
   <path fill="#FFFFFF" d="M85.458,172.989c0,0.351-0.238,0.636-0.531,0.636H71.708c-0.293,0-0.531-0.285-0.531-0.636l0,0
       c0-0.35,0.238-0.635,0.531-0.635h13.219C85.22,172.354,85.458,172.64,85.458,172.989L85.458,172.989z"/>
   <path fill="#FFFFFF" d="M82.429,161.602l-2.284-2.268v1.506h-6.088v1.523h6.088v1.506L82.429,161.602z M78.622,165.626h-3.043
       v-1.506l-2.284,2.268l2.284,2.268v-1.506h6.088v-1.523H78.622z M78.622,165.626"/>
   </svg>