<svg version="1.1" id="图层_1" xmlns="http://www.w3.org/2000/svg" xmlns:xlink="http://www.w3.org/1999/xlink" x="0px" y="0px"
        width="42.5px" height="42.5px" viewBox="166.432 144.91 42.5 42.5" enable-background="new 166.432 144.91 42.5 42.5"
        xml:space="preserve">
   <circle fill="#7C5AC2" cx="187.681" cy="166.139" r="20.878"/>
   <g>
       <g>
           <defs>
               <rect id="SVGID_11_" x="177.332" y="155.911" width="19.791" height="21.239"/>
           </defs>
           <clipPath id="SVGID_2_">
               <use xlink:href="#SVGID_11_"  overflow="visible"/>
           </clipPath>
           <path clip-path="url(#SVGID_2_)" fill="#FFFFFF" d="M184.912,157.183c0.046,0,0.082,0.033,0.082,0.075v18.541
               c0,0.035-0.029,0.06-0.064,0.06h-6.152c-0.042,0-0.077-0.031-0.077-0.069v-18.535c0-0.039,0.035-0.071,0.077-0.071H184.912
                M184.912,155.924h-6.136c-0.384,0-0.75,0.141-1.021,0.389c-0.271,0.25-0.423,0.588-0.423,0.941v18.535
               c0,0.353,0.151,0.69,0.423,0.939s0.638,0.39,1.021,0.39h6.153c0.791,0,1.432-0.59,1.432-1.319v-18.541
               c0-0.354-0.153-0.692-0.424-0.943C185.665,156.064,185.297,155.924,184.912,155.924L184.912,155.924z M195.651,157.183
               c0.045,0,0.082,0.033,0.082,0.075v18.541c0,0.035-0.029,0.06-0.065,0.06h-6.151c-0.043,0-0.076-0.031-0.076-0.069v-18.535
               c0-0.039,0.033-0.071,0.076-0.071H195.651 M195.651,155.924h-6.138c-0.383,0-0.749,0.141-1.021,0.389
               c-0.271,0.25-0.424,0.588-0.424,0.941v18.535c0,0.353,0.153,0.69,0.424,0.939c0.271,0.249,0.638,0.39,1.021,0.39h6.153
               c0.379,0,0.744-0.137,1.013-0.386c0.269-0.246,0.421-0.583,0.421-0.934v-18.541c0-0.354-0.153-0.692-0.426-0.943
               C196.403,156.064,196.036,155.924,195.651,155.924L195.651,155.924z M195.651,155.924"/>
       </g>
       <path fill="#FFFFFF" d="M189.053,166.161c-0.001-0.169,0.082-0.337,0.251-0.505l2.521-2.523c0.335-0.335,0.669-0.335,1.004,0
           c0.336,0.335,0.336,0.67,0,1.006l-1.229,1.229h3.093v1.574h-3.106l1.243,1.244c0.336,0.334,0.336,0.67,0,1.005
           c-0.335,0.335-0.669,0.335-1.004,0l-2.522-2.522C189.133,166.5,189.052,166.33,189.053,166.161z"/>
       <path fill="#FFFFFF" d="M179.751,165.381h3.105l-1.242-1.242c-0.335-0.336-0.335-0.671,0-1.006c0.334-0.335,0.67-0.335,1.004,0
           l2.523,2.523c0.168,0.169,0.251,0.337,0.249,0.505c0.002,0.169-0.081,0.339-0.249,0.508l-2.523,2.522
           c-0.334,0.335-0.67,0.335-1.004,0c-0.335-0.335-0.335-0.671,0-1.005l1.229-1.23h-3.093V165.381z"/>
   </g>
   </svg>