<svg version="1.1" id="图层_1" xmlns="http://www.w3.org/2000/svg" xmlns:xlink="http://www.w3.org/1999/xlink" x="0px" y="0px"
        width="42.5px" height="42.5px" viewBox="220.182 144.91 42.5 42.5" enable-background="new 220.182 144.91 42.5 42.5"
        xml:space="preserve">
   <circle fill="#7C5AC2" cx="241.431" cy="166.139" r="20.878"/>
   <g>
       <g>
           <defs>
               <rect id="SVGID_13_" x="230.263" y="156.547" width="21.429" height="19.967"/>
           </defs>
           <clipPath id="SVGID_2_">
               <use xlink:href="#SVGID_13_"  overflow="visible"/>
           </clipPath>
           <path clip-path="url(#SVGID_2_)" fill="#FFFFFF" d="M250.408,164.194c0,0.046-0.033,0.082-0.075,0.082h-18.706
               c-0.035,0-0.061-0.028-0.061-0.064v-6.207c0-0.042,0.031-0.077,0.07-0.077h18.699c0.04,0,0.072,0.035,0.072,0.077V164.194
                M251.679,164.194v-6.19c0-0.387-0.142-0.757-0.393-1.03c-0.252-0.273-0.594-0.427-0.95-0.427h-18.699
               c-0.355,0-0.697,0.153-0.948,0.427s-0.393,0.644-0.393,1.03v6.208c0,0.798,0.595,1.444,1.331,1.444h18.706
               c0.356,0,0.698-0.154,0.951-0.428C251.537,164.954,251.679,164.583,251.679,164.194L251.679,164.194z M250.408,175.029
               c0,0.045-0.033,0.082-0.075,0.082h-18.706c-0.035,0-0.061-0.029-0.061-0.065v-6.206c0-0.044,0.031-0.077,0.07-0.077h18.699
               c0.04,0,0.072,0.033,0.072,0.077V175.029 M251.679,175.029v-6.193c0-0.385-0.142-0.755-0.393-1.028
               c-0.252-0.273-0.594-0.428-0.95-0.428h-18.699c-0.355,0-0.697,0.154-0.948,0.428s-0.393,0.644-0.393,1.028v6.209
               c0,0.382,0.138,0.75,0.389,1.021c0.249,0.271,0.588,0.425,0.942,0.425h18.706c0.356,0,0.698-0.155,0.951-0.43
               C251.537,175.788,251.679,175.417,251.679,175.029L251.679,175.029z M251.679,175.029"/>
       </g>
       <path fill="#FFFFFF" d="M241.35,168.372c0.171-0.001,0.341,0.082,0.51,0.253l2.546,2.543c0.337,0.339,0.337,0.676,0,1.014
           c-0.338,0.339-0.677,0.339-1.015,0l-1.241-1.24v3.12h-1.587v-3.134l-1.256,1.254c-0.337,0.339-0.677,0.339-1.014,0
           c-0.338-0.338-0.338-0.675,0-1.014l2.545-2.544C241.009,168.453,241.179,168.371,241.35,168.372z"/>
       <path fill="#FFFFFF" d="M242.138,158.987v3.133l1.253-1.253c0.338-0.338,0.677-0.338,1.015,0c0.337,0.337,0.337,0.676,0,1.013
           l-2.546,2.546c-0.17,0.17-0.34,0.253-0.51,0.252c-0.171,0.001-0.341-0.082-0.512-0.252l-2.545-2.546
           c-0.338-0.337-0.338-0.676,0-1.013c0.337-0.338,0.677-0.338,1.014,0l1.241,1.24v-3.12H242.138z"/>
   </g>
   </svg>