<svg version="1.1" id="图层_1" xmlns="http://www.w3.org/2000/svg" xmlns:xlink="http://www.w3.org/1999/xlink" x="0px" y="0px"
        width="42.5px" height="42.5px" viewBox="112.932 144.91 42.5 42.5" enable-background="new 112.932 144.91 42.5 42.5"
        xml:space="preserve">
   <circle fill="#7C5AC2" cx="134.181" cy="166.139" r="20.978"/>   <text transform="matrix(1 0 0 1 113.3633 198.1074)" fill="#333333" font-family="'MicrosoftYaHei'" font-size="8.5507">元数据转换</text>
   <g>
       <g>
           <path fill="#FFFFFF" d="M132.937,166.629c-1.393-0.359-2.244-1.765-1.918-3.165l-4.847-2.796
               c-0.044,0.043-0.089,0.083-0.136,0.123l6.558,14.063c0.111-0.045,0.226-0.083,0.343-0.113V166.629z M131.632,162.29
               c0.484-0.538,1.187-0.876,1.967-0.876c0.773,0,1.469,0.331,1.952,0.86l4.777-2.759c-0.01-0.03-0.017-0.058-0.024-0.088h-13.409
               c-0.01,0.036-0.021,0.073-0.031,0.108L131.632,162.29z M136.173,163.441c0.337,1.406-0.513,2.823-1.911,3.188v8.113
               c0.126,0.033,0.25,0.075,0.37,0.126l6.556-14.057c-0.062-0.05-0.122-0.103-0.178-0.159l-4.836,2.792L136.173,163.441z
                M126.896,158.104h13.409c0.36-1.393,1.766-2.243,3.167-1.916s2.284,1.712,1.99,3.121c-0.294,1.407-1.658,2.323-3.074,2.062
               l-6.682,14.329c0.835,1.095,0.693,2.645-0.325,3.569c-1.02,0.925-2.577,0.914-3.585-0.023c-1.007-0.937-1.129-2.489-0.28-3.572
               l-6.673-14.311c-1.416,0.279-2.794-0.625-3.101-2.037c-0.306-1.409,0.573-2.805,1.977-3.138
               C125.123,155.854,126.535,156.707,126.896,158.104L126.896,158.104z M126.896,158.104"/>
       </g>
   </g>
   </svg>