<svg version="1.1" id="图层_1" xmlns="http://www.w3.org/2000/svg" xmlns:xlink="http://www.w3.org/1999/xlink" x="0px" y="0px"
        width="42.5px" height="42.5px" viewBox="0.098 144.91 42.5 42.5" enable-background="new 0.098 144.91 42.5 42.5"
        xml:space="preserve">
   <circle fill="#7C5AC2" cx="21.347" cy="166.139" r="20.978"/>
 
   <path fill="none" stroke="#FFFFFF" stroke-width="1.5" stroke-miterlimit="10" d="M21.375,162.287v-5.741
       c0-0.509-0.412-0.921-0.921-0.921h-8.407c-0.51,0-0.922,0.412-0.922,0.921v8.408c0,0.509,0.412,0.921,0.922,0.921h5.101
       C17.886,164.087,19.456,162.733,21.375,162.287z"/>
   <circle fill="none" stroke="#FFFFFF" stroke-width="1.5" stroke-miterlimit="10" cx="24.125" cy="170.188" r="5.438"/>
   <path fill="#FCFCFC" d="M25.055,157.401c2.683,0.263,4.839,1.826,5.296,4.512h-1.553l2.507,3.618l2.508-3.614h-1.729
       c-0.459-3.615-3.281-5.969-6.853-6.302c-0.493-0.039-0.951,0.374-0.951,0.896C24.313,156.957,24.629,157.363,25.055,157.401
       L25.055,157.401z"/>
   <path fill="#FCFCFC" d="M18.938,176.863c-2.684-0.263-4.838-1.825-5.297-4.512h1.553l-2.506-3.618l-2.508,3.618h1.729
       c0.457,3.615,3.282,5.968,6.852,6.301c0.493,0.039,0.95-0.374,0.95-0.896C19.681,177.308,19.364,176.901,18.938,176.863
       L18.938,176.863z"/>
   </svg>