<svg version="1.1" id="图层_1" xmlns="http://www.w3.org/2000/svg" xmlns:xlink="http://www.w3.org/1999/xlink" x="0px" y="0px"
        width="42.5px" height="42.5px" viewBox="293.625 65.25 42.5 42.5" enable-background="new 293.625 65.25 42.5 42.5"
        xml:space="preserve">
   <circle fill="#7C5AC2" cx="314.875" cy="86.554" r="20.778"/>
   <path fill-rule="evenodd" clip-rule="evenodd" fill="none" stroke="#FFFFFF" stroke-width="1.5" stroke-miterlimit="10" d="
       M317.832,71.574h-9.296l-5.245,5.51v21.49h22V79.697 M325.291,79.697 M317.832,71.574"/>
   <path fill="#FFFFFF" d="M322.981,74.938c0.283-0.283,0.296-0.729,0.03-0.995l0,0c-0.267-0.266-0.711-0.252-0.994,0.031l-4.562,4.561
       c-0.284,0.283-0.297,0.729-0.03,0.995l0,0c0.267,0.266,0.711,0.252,0.994-0.03L322.981,74.938z"/>
   <path fill="#FFFFFF" d="M323.446,74.158c0.354,0,0.643-0.288,0.643-0.643l0,0c0-0.355-0.288-0.643-0.643-0.643h-4.153
       c-0.354,0-0.642,0.287-0.642,0.643l0,0c0,0.354,0.287,0.643,0.642,0.643H323.446z"/>
   <path fill="#FFFFFF" d="M324.112,73.52c0-0.354-0.288-0.643-0.644-0.643l0,0c-0.354,0-0.642,0.289-0.642,0.643v4.152
       c0,0.355,0.288,0.643,0.642,0.643l0,0c0.355,0,0.644-0.287,0.644-0.643V73.52z"/>
   <text transform="matrix(1 0 0 1 305.1865 91.6221)" fill="#FFFFFF" font-family="'ArialMT'" font-size="7">Kafka</text>
   <path fill="#FFFFFF" d="M307.457,76.281c0,0.328,0.266,0.594,0.594,0.594h5.5c0.328,0,0.594-0.266,0.594-0.594l0,0
       c0-0.328-0.266-0.594-0.594-0.594h-5.5C307.723,75.688,307.457,75.953,307.457,76.281L307.457,76.281z"/>
   <path fill="#FFFFFF" d="M307.457,79.156c0,0.328,0.266,0.594,0.594,0.594h5.5c0.328,0,0.594-0.266,0.594-0.594l0,0
       c0-0.328-0.266-0.594-0.594-0.594h-5.5C307.723,78.563,307.457,78.828,307.457,79.156L307.457,79.156z"/>
   <text transform="matrix(1 0 0 1 297.4795 117.749)" fill="#4C4C4C" font-family="'ArialMT'" font-size="13">Kafka</text>
   </svg>