<svg version="1.1" id="图层_1" xmlns="http://www.w3.org/2000/svg" xmlns:xlink="http://www.w3.org/1999/xlink" x="0px" y="0px"
        width="42.5px" height="42.5px" viewBox="122 64.666 42.5 42.5" enable-background="new 122 64.666 42.5 42.5"
        xml:space="preserve">
   <circle fill="#7C5AC2" cx="143.25" cy="85.97" r="20.678"/>
   <path fill-rule="evenodd" clip-rule="evenodd" fill="none" stroke="#FFFFFF" stroke-width="1.5" stroke-miterlimit="10" d="
       M146.207,70.99h-9.296l-5.245,5.51v21.49h22V79.113 M153.666,79.113 M146.207,70.99"/>
   <path fill="#FFFFFF" d="M151.356,74.354c0.283-0.283,0.296-0.729,0.03-0.995l0,0c-0.267-0.266-0.711-0.252-0.994,0.031l-4.562,4.561
       c-0.284,0.283-0.297,0.729-0.03,0.995l0,0c0.267,0.266,0.711,0.252,0.994-0.03L151.356,74.354z"/>
   <path fill="#FFFFFF" d="M151.821,73.574c0.354,0,0.643-0.288,0.643-0.643l0,0c0-0.355-0.288-0.643-0.643-0.643h-4.153
       c-0.354,0-0.642,0.287-0.642,0.643l0,0c0,0.354,0.287,0.643,0.642,0.643H151.821z"/>
   <path fill="#FFFFFF" d="M152.487,72.936c0-0.354-0.288-0.643-0.644-0.643l0,0c-0.354,0-0.642,0.289-0.642,0.643v4.152
       c0,0.355,0.288,0.643,0.642,0.643l0,0c0.355,0,0.644-0.287,0.644-0.643V72.936z"/>
   <text transform="matrix(1 0 0 1 133.5459 89.0381)"><tspan x="-0.8" y="0" fill="#FFFFFF" font-family="'ArialMT'" font-size="8">Rabit</tspan><tspan x="3.658" y="5.489" fill="#FFFFFF" font-family="'ArialMT'" font-size="6">MQ</tspan></text>
   <path fill="#FFFFFF" d="M135.832,75.697c0,0.328,0.266,0.594,0.594,0.594h5.5c0.328,0,0.594-0.266,0.594-0.594l0,0
       c0-0.328-0.266-0.594-0.594-0.594h-5.5C136.098,75.104,135.832,75.369,135.832,75.697L135.832,75.697z"/>
   <path fill="#FFFFFF" d="M135.832,78.572c0,0.328,0.266,0.594,0.594,0.594h5.5c0.328,0,0.594-0.266,0.594-0.594l0,0
       c0-0.328-0.266-0.594-0.594-0.594h-5.5C136.098,77.979,135.832,78.244,135.832,78.572L135.832,78.572z"/>

   </svg>