<svg version="1.1" id="图层_1" xmlns="http://www.w3.org/2000/svg" xmlns:xlink="http://www.w3.org/1999/xlink" x="0px" y="0px"
        width="42.5px" height="42.5px" viewBox="219.375 71.542 42.5 42.5" enable-background="new 219.375 71.542 42.5 42.5"
        xml:space="preserve">
   <path fill="#20D6E6" d="M259.95,90.229c1.674,1.673,1.674,4.382,0,6.054l-16.301,16.301c-1.67,1.67-4.379,1.672-6.052,0
       l-16.3-16.301c-1.672-1.672-1.672-4.383,0-6.054l16.3-16.3c1.673-1.674,4.382-1.674,6.052,0L259.95,90.229z"/>
   <g>
       <g>
           <path fill="#FFFFFF" d="M252.297,100.627l-4.596-7.966v-5.213h2.176c0.338,0,0.609-0.271,0.609-0.609
               c0-0.337-0.271-0.611-0.609-0.611h-8.584v-2.84c0-0.337-0.273-0.611-0.611-0.611c-0.336,0-0.609,0.274-0.609,0.611v2.84h-8.58
               c-0.336,0-0.611,0.274-0.611,0.611c0,0.338,0.275,0.609,0.611,0.609h2.057v5.213l-4.598,7.966c-0.109,0.188-0.109,0.423,0,0.61
               c0.109,0.188,0.311,0.306,0.531,0.306h9.359c0.217,0,0.42-0.117,0.529-0.306c0.109-0.188,0.109-0.423,0-0.61l-4.602-7.966v-5.213
               h5.303v1.737c0,0.338,0.273,0.611,0.609,0.611c0.338,0,0.611-0.273,0.611-0.611v-1.737h5.188v5.213l-4.602,7.966
               c-0.109,0.188-0.109,0.423,0,0.61c0.111,0.188,0.311,0.306,0.531,0.306h9.359c0.219,0,0.42-0.117,0.529-0.306
               C252.41,101.05,252.408,100.814,252.297,100.627L252.297,100.627z M230.537,100.322l3.621-6.275l3.623,6.275H230.537z
                M243.469,100.322l3.621-6.275l3.623,6.275H243.469z M243.469,100.322"/>
       </g>
   </g>
   </svg>