<svg version="1.1" id="图层_1" xmlns="http://www.w3.org/2000/svg" xmlns:xlink="http://www.w3.org/1999/xlink" x="0px" y="0px"
        width="42.5px" height="42.5px" viewBox="166.5 71.667 42.5 42.5" enable-background="new 166.5 71.667 42.5 42.5"
        xml:space="preserve">
   <path fill="#20D6E6" d="M207.075,90.354c1.674,1.673,1.674,4.382,0,6.054l-16.301,16.301c-1.67,1.67-4.379,1.672-6.052,0
       l-16.3-16.301c-1.672-1.672-1.672-4.383,0-6.054l16.3-16.3c1.673-1.674,4.382-1.674,6.052,0L207.075,90.354z"/>
   <path fill="#FDFEFF" d="M180.143,101.676c0.138,0.146,0.329,0.241,0.545,0.241h6.417c0.414,0,0.75-0.336,0.75-0.75
       s-0.336-0.75-0.75-0.75h-5.688v-5.691c0-0.414-0.336-0.75-0.75-0.75s-0.75,0.336-0.75,0.75v6.416
       C179.917,101.352,180.004,101.54,180.143,101.676z"/>
   <path fill="#FDFEFF" d="M195.794,84.992c-0.138-0.146-0.329-0.241-0.545-0.241h-6.417c-0.414,0-0.75,0.336-0.75,0.75
       s0.336,0.75,0.75,0.75h5.688v5.691c0,0.414,0.336,0.75,0.75,0.75s0.75-0.336,0.75-0.75v-6.416
       C196.02,85.316,195.933,85.128,195.794,84.992z"/>
   <circle fill="#FDFEFF" cx="187.75" cy="93.583" r="2.333"/>
   </svg>