<svg version="1.1" id="图层_1" xmlns="http://www.w3.org/2000/svg" xmlns:xlink="http://www.w3.org/1999/xlink" x="0px" y="0px"
        width="42.5px" height="42.5px" viewBox="112.5 71.667 42.5 42.5" enable-background="new 112.5 71.667 42.5 42.5"
        xml:space="preserve">
   <path fill="#20D6E6" d="M153.075,90.354c1.674,1.673,1.674,4.382,0,6.054l-16.301,16.301c-1.67,1.67-4.379,1.672-6.052,0
       l-16.3-16.301c-1.672-1.672-1.672-4.383,0-6.054l16.3-16.3c1.673-1.674,4.382-1.674,6.052,0L153.075,90.354z"/>
   <g>
       <g>
           <path fill="#FDFEFF" d="M146.438,88.816l-7.145,7.193l-5.187,1.958l1.976-5.468l7.077-6.962c0.733-0.734,1.859-0.734,2.593,0
               l0.637,0.636C147.123,86.908,147.123,88.083,146.438,88.816L146.438,88.816z M135.75,96.25l2.792-1.042l0.195-0.195l-1.695-1.721
               l-0.195,0.195C136.847,93.438,135.75,96.25,135.75,96.25L135.75,96.25z M137.696,92.504l1.649,1.65l4.805-4.754l-1.649-1.65
               L137.696,92.504z M145.803,86.811l-0.637-0.637c-0.343-0.342-0.979-0.342-1.321,0l-0.685,0.686l1.957,1.957l0.686-0.685
               C146.193,87.789,146.193,87.202,145.803,86.811L145.803,86.811z M139.099,97.674v1.076h-4.502l2.446-1.076H139.099z
                M136.75,84.875V87.3c0,0.489,0.32,0.846,0.792,1.033l1.25,0.417l-0.334,0.417L138,89.583c-1.458,0.458-2.833-1.256-2.833-2.283
               v-3.508h-7.042c-0.489,0-0.93,0.44-0.93,0.93l-0.031,16.55c0,0.489,0.44,0.93,0.93,0.93l11.82-0.021c0.538,0,0.93-0.392,0.93-0.93
               l0.031-6.094l1.453-0.908v7.487c0,1.027-0.832,1.859-1.859,1.859h-13.065c-1.027,0-1.859-0.832-1.859-1.859V84.021
               c0-1.027,0.832-1.859,1.859-1.859h9.053l4.208,4.502l-0.636,1.636L136.75,84.875z M136.75,83.875"/>
       </g>
   </g>
   <text transform="matrix(1 0 0 1 128.1875 97.2813)" fill="#FFFFFF" font-family="'TRENDS'" font-size="12">?</text>
   </svg>