<svg version="1.1" id="图层_1" xmlns="http://www.w3.org/2000/svg" xmlns:xlink="http://www.w3.org/1999/xlink" x="0px" y="0px"
        width="42.5px" height="42.5px" viewBox="272.042 71.542 42.5 42.5" enable-background="new 272.042 71.542 42.5 42.5"
        xml:space="preserve">
   <path fill="#20D6E6" d="M312.617,90.229c1.674,1.673,1.674,4.382,0,6.054l-16.301,16.301c-1.67,1.67-4.379,1.672-6.052,0
       l-16.3-16.301c-1.672-1.672-1.672-4.383,0-6.054l16.3-16.3c1.673-1.674,4.382-1.674,6.052,0L312.617,90.229z"/>
   <g>
       <g>
           <path fill="#FFFFFF" d="M291.819,102.239c-0.656,0-1.313-0.067-1.95-0.196c-0.626-0.129-1.236-0.318-1.82-0.565
               c-0.569-0.241-1.123-0.542-1.645-0.894c-0.51-0.343-0.992-0.74-1.434-1.18c-0.324-0.325-0.324-0.849,0-1.174
               s0.849-0.325,1.174-0.001c0.365,0.364,0.766,0.694,1.188,0.979c0.432,0.292,0.891,0.541,1.363,0.741
               c0.481,0.202,0.987,0.361,1.507,0.468c1.058,0.215,2.175,0.215,3.233,0c0.52-0.106,1.024-0.265,1.507-0.467
               c0.472-0.2,0.93-0.448,1.361-0.741c0.424-0.285,0.822-0.616,1.188-0.979c0.365-0.364,0.695-0.766,0.979-1.187
               c0.291-0.432,0.54-0.89,0.74-1.363c0.203-0.479,0.36-0.986,0.468-1.507c0.107-0.526,0.162-1.069,0.162-1.616
               c0-0.546-0.056-1.089-0.162-1.617c-0.108-0.521-0.265-1.026-0.468-1.505c-0.199-0.475-0.448-0.934-0.74-1.364
               c-0.286-0.422-0.614-0.821-0.98-1.188c-0.361-0.362-0.762-0.69-1.187-0.979c-0.43-0.29-0.888-0.539-1.361-0.74
               c-0.483-0.203-0.99-0.362-1.507-0.468c-1.053-0.215-2.18-0.215-3.234,0c-0.516,0.104-1.022,0.264-1.506,0.468
               c-0.476,0.199-0.933,0.449-1.361,0.739c-0.426,0.287-0.826,0.616-1.189,0.979c-0.361,0.363-0.689,0.763-0.979,1.188
               c-0.29,0.431-0.539,0.889-0.738,1.361c-0.205,0.484-0.362,0.991-0.469,1.508c-0.097,0.476-0.151,0.967-0.161,1.461h2.565
               l2.161-5.714c0.127-0.344,0.479-0.56,0.836-0.534c0.367,0.026,0.672,0.292,0.751,0.651l1.849,8.514l2.26-5.616
               c0.119-0.299,0.4-0.501,0.721-0.52c0.317-0.02,0.623,0.149,0.778,0.432l1.522,2.797l1.245-0.011h0.009
               c0.455,0,0.824,0.366,0.83,0.822c0.004,0.459-0.365,0.833-0.824,0.838l-1.743,0.014h-0.007c-0.304,0-0.584-0.165-0.728-0.432
               l-0.923-1.689l-2.61,6.489c-0.137,0.338-0.465,0.543-0.841,0.518c-0.362-0.031-0.662-0.296-0.741-0.65l-1.824-8.412l-1.374,3.628
               c-0.121,0.322-0.43,0.536-0.775,0.536h-3.916c-0.434,0-0.794-0.334-0.828-0.766l-0.052-0.675
               c-0.002-0.722,0.065-1.378,0.195-2.015c0.129-0.624,0.316-1.235,0.564-1.82c0.242-0.569,0.542-1.122,0.893-1.645
               c0.347-0.512,0.745-0.994,1.18-1.433c0.441-0.438,0.923-0.835,1.435-1.18c0.519-0.351,1.072-0.65,1.645-0.894
               c0.585-0.247,1.195-0.438,1.818-0.564c1.274-0.263,2.629-0.263,3.902,0c0.623,0.127,1.235,0.317,1.82,0.563
               c0.572,0.242,1.125,0.543,1.644,0.895c0.512,0.345,0.994,0.742,1.434,1.18c0.44,0.443,0.837,0.924,1.181,1.434
               c0.351,0.521,0.65,1.075,0.892,1.646c0.244,0.578,0.437,1.189,0.565,1.817c0.129,0.638,0.196,1.294,0.196,1.951
               c0,0.658-0.067,1.313-0.197,1.949c-0.13,0.63-0.32,1.242-0.565,1.821c-0.24,0.57-0.541,1.123-0.892,1.645
               c-0.343,0.51-0.741,0.991-1.181,1.433c-0.44,0.44-0.923,0.839-1.435,1.182c-0.521,0.352-1.073,0.652-1.643,0.894
               c-0.584,0.246-1.193,0.436-1.818,0.564C293.132,102.172,292.475,102.239,291.819,102.239L291.819,102.239z M291.819,102.239"/>
       </g>
   </g>
   <path fill="#FFFFFF" d="M301.72,101.183c0.284,0.284,0.284,0.746,0,1.03l0,0c-0.285,0.285-0.746,0.285-1.031,0l-3.566-3.566
       c-0.285-0.285-0.285-0.747,0-1.031l0,0c0.284-0.284,0.746-0.284,1.03,0L301.72,101.183z"/>
   </svg>