<svg version="1.1" id="图层_1" xmlns="http://www.w3.org/2000/svg" xmlns:xlink="http://www.w3.org/1999/xlink" x="0px" y="0px"
	 width="43.834px" height="43.834px" viewBox="0 71.334 43.834 43.834" enable-background="new 0 71.334 43.834 43.834"
	 xml:space="preserve">
<circle fill="#38A9FF" cx="21.917" cy="93.916" r="15.833"/>
<g>
	<g>
		<path fill="#FFFFFF" d="M17.745,104.333c-0.139-0.002-0.275-0.034-0.399-0.096c-0.289-0.149-0.471-0.448-0.47-0.773V86.078
			c0.002-0.325,0.185-0.621,0.472-0.77c0.29-0.148,0.637-0.123,0.902,0.065l12.17,8.693c0.226,0.163,0.359,0.425,0.359,0.704
			c0,0.278-0.134,0.54-0.359,0.704l-12.17,8.692C18.104,104.277,17.928,104.337,17.745,104.333L17.745,104.333z M18.615,87.765
			v14.013l9.805-7.006L18.615,87.765z M18.615,87.765"/>
	</g>
</g>
</svg>
