<svg version="1.1" id="图层_1" xmlns="http://www.w3.org/2000/svg" xmlns:xlink="http://www.w3.org/1999/xlink" x="0px" y="0px"
        width="42.5px" height="42.5px" viewBox="482.082 0.5 42.5 42.5" enable-background="new 482.082 0.5 42.5 42.5" xml:space="preserve">
   <path fill="#56CD7A" d="M522.657,18.666c1.674,1.673,1.674,4.381,0,6.054l-16.301,16.301c-1.67,1.67-4.379,1.672-6.052,0
       l-16.3-16.301c-1.672-1.673-1.672-4.383,0-6.054l16.3-16.3c1.673-1.674,4.382-1.674,6.052,0L522.657,18.666z"/>
   <g>
       <path fill="#FFFFFF" d="M511.265,31.518h-2.545c-0.49,0-0.887-0.398-0.887-0.889s0.396-0.887,0.887-0.887h2.545
           c0.337,0,0.611-0.273,0.611-0.611V13.962c0-0.337-0.274-0.612-0.611-0.612H496.1c-0.337,0-0.611,0.275-0.611,0.612v2.25
           c0,0.491-0.396,0.887-0.888,0.887c-0.49,0-0.887-0.396-0.887-0.887v-2.25c0-1.317,1.069-2.386,2.386-2.386h15.17
           c1.316,0,2.386,1.069,2.386,2.386v15.169C513.655,30.447,512.58,31.518,511.265,31.518L511.265,31.518z M499.928,31.518h-4.852
           c-0.752,0-1.367-0.613-1.367-1.369v-4.846c0-0.752,0.611-1.368,1.367-1.368h4.852c0.752,0,1.368,0.611,1.368,1.368v4.852
           C501.296,30.904,500.68,31.518,499.928,31.518L499.928,31.518z M495.483,29.742h4.038v-4.033h-4.038V29.742z M495.483,29.742"/>
       <path fill="#FFFFFF" d="M505.26,31.518h-2.002c-0.491,0-0.889-0.398-0.889-0.889s0.397-0.887,0.889-0.887h2.002
           c0.042,0,0.075-0.033,0.075-0.074v-9.697c0-0.042-0.033-0.075-0.075-0.075h-9.701c-0.043,0-0.075,0.033-0.075,0.075v1.845
           c0,0.49-0.396,0.887-0.886,0.887c-0.492,0-0.889-0.397-0.889-0.887v-1.845c0-1.018,0.826-1.849,1.85-1.849h9.701
           c1.018,0,1.85,0.827,1.85,1.849v9.701C507.104,30.691,506.277,31.518,505.26,31.518L505.26,31.518z M505.26,31.518"/>
   </g>
   </svg>