<svg version="1.1" id="图层_1" xmlns="http://www.w3.org/2000/svg" xmlns:xlink="http://www.w3.org/1999/xlink" x="0px" y="0px"
        width="42.5px" height="42.5px" viewBox="219.416 0.5 42.5 42.5" enable-background="new 219.416 0.5 42.5 42.5" xml:space="preserve">
   <path fill="#56CD7A" d="M260.077,18.624c1.674,1.673,1.674,4.381,0,6.054l-16.301,16.301c-1.67,1.67-4.379,1.672-6.052,0
       l-16.3-16.301c-1.672-1.673-1.672-4.383,0-6.054l16.3-16.3c1.673-1.674,4.382-1.674,6.052,0L260.077,18.624z"/>
   <g>
       <g>
           <circle fill="#FFFFFF" cx="250.713" cy="20.304" r="1.371"/>
           <circle fill="#FFFFFF" cx="250.713" cy="23.714" r="1.371"/>
           <circle fill="#FFFFFF" cx="247.31" cy="20.304" r="1.371"/>
           <circle fill="#FFFFFF" cx="247.31" cy="23.714" r="1.371"/>
       </g>
       <path fill="#FFFFFF" d="M235.973,24.324c0,0.58,0.309,1.115,0.811,1.404c0.501,0.289,1.119,0.289,1.62,0
           c0.502-0.289,0.811-0.825,0.811-1.404c0-0.578-0.309-1.113-0.811-1.403c-0.501-0.289-1.119-0.289-1.62,0
           C236.281,23.211,235.973,23.747,235.973,24.324L235.973,24.324z M235.973,24.324"/>
       <path fill="#FFFFFF" d="M233.275,22.895c0,0.383,0.31,0.692,0.692,0.692s0.693-0.31,0.693-0.692s-0.311-0.693-0.693-0.693
           S233.275,22.512,233.275,22.895L233.275,22.895z M233.275,22.895"/>
       <path fill="#FFFFFF" d="M234.661,26.923c0,0.349,0.187,0.671,0.489,0.846c0.302,0.176,0.674,0.176,0.977,0
           c0.303-0.175,0.488-0.497,0.488-0.846c0-0.54-0.438-0.978-0.977-0.978C235.098,25.945,234.661,26.383,234.661,26.923
           L234.661,26.923z M234.661,26.923"/>
       <g>
           <defs>
               <rect id="SVGID_7_" x="231.447" y="11.67" width="20.637" height="20.69"/>
           </defs>
           <clipPath id="SVGID_2_">
               <use xlink:href="#SVGID_7_"  overflow="visible"/>
           </clipPath>
           <path clip-path="url(#SVGID_2_)" fill="#FFFFFF" d="M235.015,20.225c0,0.342,0.183,0.658,0.479,0.83
               c0.297,0.171,0.662,0.171,0.958,0c0.297-0.171,0.479-0.487,0.479-0.83s-0.182-0.658-0.479-0.83c-0.296-0.171-0.661-0.171-0.958,0
               C235.197,19.567,235.015,19.883,235.015,20.225L235.015,20.225z M235.015,20.225"/>
           <path clip-path="url(#SVGID_2_)" fill="#FFFFFF" d="M231.444,14.757c0,0.519,0.277,1,0.728,1.26c0.45,0.26,1.005,0.26,1.455,0
               c0.449-0.26,0.727-0.741,0.727-1.26c0-0.52-0.277-1-0.727-1.26c-0.45-0.26-1.005-0.26-1.455,0
               C231.722,13.757,231.444,14.237,231.444,14.757L231.444,14.757z M231.444,14.757"/>
       </g>
       <path fill="#FFFFFF" d="M234.879,16.489c0,0.255,0.136,0.491,0.357,0.62c0.222,0.127,0.494,0.127,0.715,0
           c0.222-0.128,0.357-0.364,0.357-0.62c0-0.256-0.136-0.492-0.357-0.619c-0.221-0.128-0.493-0.128-0.715,0
           C235.015,15.997,234.879,16.233,234.879,16.489L234.879,16.489z M234.879,16.489"/>
       <path fill="#FFFFFF" d="M237.086,28.318c0,0.151,0.08,0.291,0.211,0.367s0.293,0.076,0.424,0s0.211-0.215,0.211-0.367
           s-0.08-0.291-0.211-0.367c-0.131-0.075-0.293-0.075-0.424,0C237.166,28.027,237.086,28.167,237.086,28.318L237.086,28.318z
            M237.086,28.318"/>
       <path fill="#FFFFFF" d="M235.978,30.674c0,0.229,0.122,0.441,0.32,0.556c0.197,0.114,0.442,0.114,0.641,0s0.32-0.326,0.32-0.556
           c0-0.229-0.122-0.44-0.32-0.555s-0.443-0.114-0.641,0C236.1,30.233,235.978,30.445,235.978,30.674L235.978,30.674z M235.978,30.674
           "/>
       <path fill="#FFFFFF" d="M248.322,26.032v2.747l-6.741,1.496V13.678l6.741,1.274v3.033h1.652v-4.401l-10.046-1.9v20.651
           l10.046-2.232v-4.07H248.322z M248.322,26.032"/>
   </g>
   </svg>