<svg version="1.1" id="图层_1" xmlns="http://www.w3.org/2000/svg" xmlns:xlink="http://www.w3.org/1999/xlink" x="0px" y="0px"
        width="42.5px" height="42.5px" viewBox="166.916 0.5 42.5 42.5" enable-background="new 166.916 0.5 42.5 42.5" xml:space="preserve">
   <path fill="#56CD7A" d="M207.577,18.624c1.674,1.673,1.674,4.381,0,6.054l-16.301,16.301c-1.67,1.67-4.379,1.672-6.052,0
       l-16.3-16.301c-1.672-1.673-1.672-4.383,0-6.054l16.3-16.3c1.673-1.674,4.382-1.674,6.052,0L207.577,18.624z"/>
   <g>
       <g>
           <defs>
               <rect id="SVGID_5_NULL" x="177.361" y="11.833" width="20.639" height="19.62"/>
           </defs>
           <clipPath id="SVGID_2_NULL">
               <use xlink:href="#SVGID_5_NULL"  overflow="visible"/>
           </clipPath>
           <path clip-path="url(#SVGID_2_NULL)" fill="#FFFFFF" d="M178.752,18.338v-3.127l1.945,3.463c0.128,0.22,0.359,0.359,0.603,0.359
               c0.058,0,0.116-0.012,0.174-0.023c0.301-0.081,0.521-0.359,0.521-0.672v-5.791c0-0.382-0.313-0.695-0.695-0.695
               c-0.382,0-0.694,0.313-0.694,0.695v3.127l-1.946-3.463c-0.15-0.278-0.476-0.417-0.787-0.336c-0.302,0.081-0.511,0.359-0.511,0.672
               v5.791c0,0.383,0.313,0.695,0.695,0.695C178.439,19.033,178.752,18.721,178.752,18.338L178.752,18.338z M187.67,12.547
               c0-0.382-0.313-0.695-0.694-0.695c-0.383,0-0.695,0.313-0.695,0.695v4.98c0,0.069-0.046,0.115-0.115,0.115h-1.738
               c-0.058,0-0.116-0.058-0.116-0.115v-4.98c0-0.382-0.313-0.695-0.694-0.695s-0.695,0.313-0.695,0.695v4.98
               c0,0.834,0.672,1.506,1.506,1.506h1.738c0.833,0,1.505-0.672,1.505-1.506V12.547z M189.407,19.033h2.78
               c0.382,0,0.694-0.313,0.694-0.695c0-0.382-0.313-0.695-0.694-0.695h-2.085v-5.096c0-0.382-0.313-0.695-0.695-0.695
               s-0.694,0.313-0.694,0.695v5.791C188.713,18.721,189.025,19.033,189.407,19.033L189.407,19.033z M197.283,17.643h-2.084v-5.096
               c0-0.382-0.313-0.695-0.695-0.695c-0.383,0-0.695,0.313-0.695,0.695v5.791c0,0.383,0.313,0.695,0.695,0.695h2.779
               c0.383,0,0.695-0.313,0.695-0.695C197.979,17.956,197.666,17.643,197.283,17.643L197.283,17.643z M190.265,28.924
               c0.348,0.162,0.765,0.023,0.927-0.324l0.255-0.532h2.281l0.255,0.532c0.116,0.243,0.37,0.395,0.625,0.395
               c0.104,0,0.209-0.023,0.302-0.07c0.348-0.162,0.486-0.579,0.324-0.926l-2.027-4.17c-0.115-0.243-0.358-0.394-0.625-0.394
               s-0.51,0.15-0.625,0.394l-2.027,4.17C189.778,28.345,189.917,28.75,190.265,28.924L190.265,28.924z M193.056,26.677h-0.927
               l0.464-0.961L193.056,26.677z M193.056,26.677"/>
       </g>
       <path fill="#FFFFFF" d="M197.052,21.118h-8.919c-0.382,0-0.694,0.313-0.694,0.694v8.919c0,0.382,0.313,0.694,0.694,0.694h8.919
           c0.382,0,0.695-0.313,0.695-0.694v-8.919C197.747,21.431,197.434,21.118,197.052,21.118L197.052,21.118z M196.356,30.036h-7.528
           v-7.528h7.528V30.036z M184.265,23.84c-0.267-0.267-0.706-0.267-0.984,0c-0.266,0.266-0.266,0.706,0,0.984l0.579,0.579h-4.181
           v-3.475c0-0.383-0.313-0.695-0.695-0.695s-0.695,0.313-0.695,0.695v4.17c0,0.382,0.313,0.694,0.695,0.694h4.888l-0.579,0.579
           c-0.267,0.267-0.267,0.707,0,0.984c0.139,0.139,0.313,0.209,0.486,0.209s0.359-0.07,0.486-0.209l1.772-1.771
           c0.267-0.267,0.267-0.707,0-0.984L184.265,23.84z M184.265,23.84"/>
   </g>
   </svg>