<svg version="1.1" id="图层_1" xmlns="http://www.w3.org/2000/svg" xmlns:xlink="http://www.w3.org/1999/xlink" x="0px" y="0px"
        width="42.5px" height="42.5px" viewBox="112.25 0.5 42.5 42.5" enable-background="new 112.25 0.5 42.5 42.5" xml:space="preserve">
   <path fill="#56CD7A" d="M152.91,18.624c1.674,1.673,1.674,4.381,0,6.054l-16.301,16.301c-1.67,1.67-4.379,1.672-6.052,0
       l-16.3-16.301c-1.672-1.673-1.672-4.383,0-6.054l16.3-16.3c1.673-1.674,4.382-1.674,6.052,0L152.91,18.624z"/>
   <g>
       <g>
           <path fill="#FFFFFF" d="M139.788,31.983h-13.109c-2.037,0-3.628-1.593-3.628-3.628V15.244c0-2.037,1.591-3.627,3.628-3.627h13.109
               c2.037,0,3.628,1.591,3.628,3.627v13.111C143.416,30.391,141.825,31.983,139.788,31.983L139.788,31.983z M126.679,13.08
               c-1.146,0-2.164,1.019-2.164,2.164v13.111c0,1.145,1.018,2.164,2.164,2.164h13.109c1.146,0,2.164-1.019,2.164-2.164V15.244
               c0-1.145-1.018-2.164-2.164-2.164H126.679z M132.024,27.909l-4.9-4.519l1.019-1.083l2.417,2.228v-8.719h1.465V27.909z
                M135.971,27.781h-1.465V15.69l4.9,4.519l-1.018,1.082l-2.418-2.228V27.781z M135.971,27.781"/>
       </g>
   </g>
   </svg>