<svg version="1.1" id="图层_1REF" xmlns="http://www.w3.org/2000/svg" xmlns:xlink="http://www.w3.org/1999/xlink" x="0px" y="0px"
        width="42.5px" height="42.5px" viewBox="0 0.5 42.5 42.5" enable-background="new 0 0.5 42.5 42.5" xml:space="preserve">
   <path fill="#61BA75" d="M40.572,18.666c1.674,1.673,1.674,4.381,0,6.054L24.271,41.021c-1.67,1.67-4.378,1.672-6.05,0L1.92,24.72
       c-1.672-1.673-1.672-4.383,0-6.054l16.3-16.299c1.672-1.674,4.38-1.674,6.05,0L40.572,18.666z"/>
   <g>
       <g>
           <g>
               <defs>
                   <rect id="SVGID_1_REF" x="11.673" y="11.095" width="20.324" height="22.353"/>
               </defs>
               <clipPath id="SVGID_2_REF">
                   <use xlink:href="#SVGID_1_REF"  overflow="visible"/>
               </clipPath>
               <path clip-path="url(#SVGID_2_REF)" fill="#FFFFFF" d="M19.037,30.948c-3.122-0.397-5.914-1.518-5.914-2.924v-1.85
                   c1.229,0.922,3.148,1.581,5.389,1.895c0.01-0.498,0.068-0.983,0.172-1.452c-2.975-0.435-5.562-1.524-5.562-2.874v-1.85
                   c1.476,1.106,3.942,1.84,6.769,2.039c0.375-0.521,0.814-0.992,1.311-1.398c-3.864-0.053-8.079-1.35-8.079-3.076v-1.373
                   c1.74,1.305,4.853,2.102,8.315,2.102c3.464,0,6.576-0.795,8.316-2.102v1.373c0,0.674-0.646,1.282-1.658,1.777
                   c0.547,0.179,1.07,0.421,1.561,0.722c0.031-0.022,0.068-0.042,0.101-0.063v0.125c0.534,0.338,1.021,0.744,1.453,1.207V15.65
                   c0-2.584-4.2-4.534-9.77-4.534c-5.57,0-9.772,1.95-9.772,4.534v12.375c0,2.341,3.444,4.153,8.229,4.479
                   C19.547,32.021,19.258,31.5,19.037,30.948L19.037,30.948z M21.439,12.57c3.925,0,8.316,1.318,8.316,3.08
                   c0,1.762-4.391,3.08-8.316,3.08c-3.926,0-8.315-1.317-8.315-3.08C13.124,13.888,17.513,12.57,21.439,12.57L21.439,12.57z"/>
           </g>
       </g>
       <path fill="#FFFFFF" d="M27.046,31.295l-2.27-1.726h-0.269c-0.132,0-0.132,0.135-0.132,0.266v0.93
           c-0.936-0.531-1.604-1.459-1.736-2.52c0-0.266-0.399-0.532-0.667-0.532c-0.267,0-0.533,0.399-0.533,0.665
           c0.134,1.063,0.666,1.989,1.333,2.654c0.533,0.396,1.066,0.795,1.604,1.061v1.063c0,0.131,0,0.131,0.132,0.131
           c0.134,0.137,0.134,0.137,0.269,0.137l2.27-1.727c0,0,0.135-0.133,0.135-0.266C27.181,31.429,27.181,31.295,27.046,31.295
           L27.046,31.295z M30.917,26.919l0.936-0.531c0.135,0,0.135-0.133,0.135-0.266c0-0.132,0-0.132-0.135-0.266l-2.67-1.06h-0.268
           c-0.132,0-0.132,0.132-0.132,0.132l-0.134,2.918c0,0.131,0,0.131,0.134,0.131h0.265l0.803-0.528c0,1.061-0.401,2.122-1.336,2.786
           c-0.267,0.265-0.267,0.529-0.134,0.795c0.269,0.264,0.534,0.264,0.802,0C30.517,30.233,31.185,28.511,30.917,26.919L30.917,26.919z
            M25.312,25.194c0-0.133,0-0.133-0.135-0.266l-0.8-0.396c0.935-0.53,2.003-0.663,3.071-0.266c0.266,0.135,0.666,0,0.8-0.396
           c0.134-0.266,0-0.664-0.399-0.795c-1.469-0.53-3.34-0.133-4.541,0.795l-1.066-0.531h-0.267c0,0.135-0.135,0.135,0,0.266
           l0.267,2.785c0,0,0,0.133,0.134,0.133h0.267l2.672-1.195v-0.133H25.312z"/>
   </g>
   </svg>