<svg version="1.1" id="图层_1" xmlns="http://www.w3.org/2000/svg" xmlns:xlink="http://www.w3.org/1999/xlink" x="0px" y="0px"
        width="42.5px" height="42.5px" viewBox="56.25 0.5 42.5 42.5" enable-background="new 56.25 0.5 42.5 42.5" xml:space="preserve">
   <path fill="#56CD7A" d="M96.91,18.624c1.674,1.673,1.674,4.381,0,6.054L80.609,40.979c-1.67,1.67-4.379,1.672-6.052,0l-16.3-16.301
       c-1.672-1.673-1.672-4.383,0-6.054l16.3-16.3c1.673-1.674,4.382-1.674,6.052,0L96.91,18.624z"/>
   <g>
       <g>
           <defs>
               <rect id="SVGID_3_" x="68.019" y="12.164" width="19.231" height="19.251"/>
           </defs>
           <clipPath id="SVGID_2_">
               <use xlink:href="#SVGID_3_"  overflow="visible"/>
           </clipPath>
           <path clip-path="url(#SVGID_2_)" fill="#FFFFFF" d="M84.831,28.989v-1.2c0.8-0.117,1.201-0.516,1.201-1.201v-12.01
               c0-0.664-0.538-1.202-1.201-1.202H72.82c-0.664,0-1.201,0.538-1.201,1.202h-1.201c0-1.327,1.075-2.402,2.402-2.402h12.011
               c1.326,0,2.402,1.076,2.402,2.402v12.01C87.233,27.915,86.157,28.989,84.831,28.989L84.831,28.989z M69.216,16.98v12.009
               c0,0.664,0.539,1.201,1.202,1.201h12.01c0.663,0,1.202-0.537,1.202-1.201V16.98c0-0.663-0.539-1.201-1.202-1.201h-12.01
               C69.755,15.779,69.216,16.317,69.216,16.98L69.216,16.98z M82.428,14.578c1.326,0,2.403,1.075,2.403,2.402v12.009
               c0,1.327-1.077,2.402-2.403,2.402h-12.01c-1.326,0-2.403-1.075-2.403-2.402V16.98c0-1.327,1.077-2.402,2.403-2.402H82.428z
                M82.428,14.578"/>
       </g>
       <path fill="#FFFFFF" d="M71.343,16.61h7.391c0.203-0.046,0.413,0.037,0.531,0.208c0.116,0.172,0.116,0.398,0,0.569
           c-0.118,0.172-0.328,0.255-0.531,0.209h-7.391c-0.203,0.046-0.413-0.037-0.53-0.209c-0.117-0.171-0.117-0.397,0-0.569
           C70.93,16.647,71.14,16.564,71.343,16.61L71.343,16.61z M82.429,17.597c-0.258-0.059-0.428-0.306-0.389-0.568
           s0.273-0.45,0.537-0.43c0.264,0.019,0.469,0.239,0.469,0.504C83.009,17.407,82.733,17.626,82.429,17.597L82.429,17.597z
            M69.494,19.566h14.782v-0.986H69.494V19.566z M69.494,19.566"/>
   </g>
   </svg>