<svg version="1.1" id="图层_1" xmlns="http://www.w3.org/2000/svg" xmlns:xlink="http://www.w3.org/1999/xlink" x="0px" y="0px"
        width="42.5px" height="42.5px" viewBox="272.082 0.5 42.5 42.5" enable-background="new 272.082 0.5 42.5 42.5" xml:space="preserve">
   <path fill="#56CD7A" d="M312.743,18.624c1.674,1.673,1.674,4.381,0,6.054l-16.301,16.301c-1.67,1.67-4.379,1.672-6.052,0
       l-16.3-16.301c-1.672-1.673-1.672-4.383,0-6.054l16.3-16.3c1.673-1.674,4.382-1.674,6.052,0L312.743,18.624z"/>
   <text transform="matrix(1 0 0 1 272.082 53.333)" fill="#333333" font-family="'MicrosoftYaHei'" font-size="11">数据拆分 </text>
   <g>
       <path fill="#FFFFFF" d="M289.112,13.016h-4.257v5.074h4.257V13.016z M290.689,13.016v5.074h4.267v-5.074H290.689z M296.533,13.016
           v5.074h4.256v-5.074H296.533z M300.789,19.666h-10.1v4.004c0.021,0.071,0.03,0.146,0.03,0.22c0,0.076-0.011,0.15-0.03,0.219v4.84
           h10.1V19.666z M289.112,28.949v-4.271h-4.257v4.271H289.112z M284.855,23.102h4.257v-3.437h-4.257V23.102z M284.769,11.44h16.108
           c0.821,0,1.488,0.667,1.488,1.488v16.108c0,0.822-0.667,1.488-1.488,1.488h-16.108c-0.821,0-1.488-0.666-1.488-1.488V12.929
           C283.28,12.107,283.947,11.44,284.769,11.44L284.769,11.44z M284.769,11.44"/>
   </g>
   </svg>