<svg version="1.1" id="图层_1" xmlns="http://www.w3.org/2000/svg" xmlns:xlink="http://www.w3.org/1999/xlink" x="0px" y="0px"
        width="42.5px" height="42.5px" viewBox="325.582 0.5 42.5 42.5" enable-background="new 325.582 0.5 42.5 42.5" xml:space="preserve">
   <path fill="#56CD7A" d="M366.243,18.624c1.674,1.673,1.674,4.381,0,6.054l-16.301,16.301c-1.67,1.67-4.379,1.672-6.052,0
       l-16.3-16.301c-1.672-1.673-1.672-4.383,0-6.054l16.3-16.3c1.673-1.674,4.382-1.674,6.052,0L366.243,18.624z"/>
   <g>
       <g>
           <path fill="#FFFFFF" d="M342.036,16.318c-0.349,0-0.471-0.319-0.516-0.44c-0.091-0.167-0.197-0.334-0.288-0.486l0.045-0.167
               l-0.106,0.061c-0.395-0.41-0.243-0.698-0.121-0.834c0.13-0.146,0.318-0.229,0.515-0.228c0.138,0,0.289,0.046,0.425,0.106
               c0.44,0.228,0.697,0.591,0.697,0.986c0,0.302-0.029,0.834-0.5,0.97C342.139,16.305,342.087,16.315,342.036,16.318 M357.441,31.875
               c-0.197,0-0.349-0.121-0.454-0.197c-0.426-0.305-0.835-0.516-1.273-0.742c-0.454-0.229-0.925-0.455-1.35-0.773
               c-0.47-0.348-1.015-0.805-1.38-1.486c-0.06-0.107-0.242-0.438-0.122-0.771c0.106-0.287,0.396-0.41,0.592-0.47
               c0.62-0.197,1.333-0.409,2.108-0.44l-0.047-0.029c-0.895-0.667-1.699-1.273-2.669-1.502c-1.333-0.318-1.91-1.213-2.306-2.062
               c-0.258-0.549-0.501-1.105-0.729-1.668c-0.501-1.199-1.017-2.426-1.759-3.519c-1.12-1.714-2.667-3.109-4.487-4.048
               c-0.501-0.257-1.167-0.545-1.911-0.545h-0.12c-0.606,0-1.106-0.198-1.562-0.606c-0.38-0.334-0.864-0.517-1.38-0.714l-0.244-0.09
               c-0.075-0.035-0.158-0.055-0.242-0.061c-0.12,0.061-0.167,0.121,0,0.395c0.258,0.378,0.547,0.788,0.864,1.227
               c0.593,0.789,0.91,1.684,1.107,2.365c0.287,0.985,0.605,1.759,1.213,2.381c0.562,0.576,0.272,1.228,0.092,1.652l-0.167,0.076
               l0.105,0.046c-0.515,1.198-0.515,2.472,0.016,4.109c0.046,0.137,0.106,0.274,0.183,0.379l0.015,0.016
               c0.076-0.757,0.151-1.593,0.759-2.303c0.136-0.229,0.303-0.486,0.637-0.486c0.471,0.045,0.546,0.439,0.577,0.576
               c0.59,1.607,1.47,3.002,2.259,4.185c0.061,0.107,0.075,0.229,0.03,0.334c-0.045,0.105-0.151,0.198-0.258,0.214
               c-0.06,0.016-0.137,0.016-0.197,0.016c-0.44,0-0.712-0.275-1.502-1.154c-0.243-0.256-0.408-0.561-0.562-0.834l-0.121-0.197
               c-0.01,0.133-0.03,0.264-0.061,0.395c-0.182,0.696-0.651,1.121-1.213,1.121c-0.349,0-0.698-0.168-1.017-0.485
               c-0.697-0.713-1.075-1.624-1.213-2.88c-0.136-1.258,0-2.442,0.41-3.533c0.105-0.303,0.105-0.455-0.106-0.714
               c-0.728-0.879-1.076-1.971-1.363-3.018c-0.243-0.666-0.607-1.227-1.092-1.864c-0.364-0.47-0.683-0.88-0.85-1.426
               c-0.152-0.545-0.076-1.076,0.211-1.471c0.288-0.395,0.758-0.621,1.305-0.621c1.167,0,2.093,0.593,2.865,1.137l0.123,0.09
               c0.136,0.106,0.212,0.167,0.303,0.167c2.439,0,4.2,1.38,5.792,2.79c1.563,1.38,2.791,3.108,3.548,5.035
               c0.319,0.804,0.696,1.593,1.076,2.364c0.182,0.364,0.364,0.743,0.53,1.122c0.093,0.197,0.229,0.318,0.455,0.409
               c1.896,0.772,3.411,1.835,4.642,3.229c0.181,0.199,0.362,0.47,0.271,0.76c-0.103,0.334-0.454,0.425-0.695,0.469
               c-0.318,0.076-0.653,0.121-0.97,0.181c-0.363,0.062-0.741,0.106-1.107,0.214c0.151,0.135,0.319,0.228,0.47,0.303
               c0.714,0.35,1.246,0.91,1.745,1.439c0.167,0.17,0.288,0.305,0.408,0.424c0.456,0.459,0.257,0.791,0.182,0.881
               C357.745,31.799,357.609,31.875,357.441,31.875"/>
       </g>
   </g>
   </svg>