<svg version="1.1" id="图层_1" xmlns="http://www.w3.org/2000/svg" xmlns:xlink="http://www.w3.org/1999/xlink" x="0px" y="0px"
	 width="43.834px" height="43.834px" viewBox="53.417 0 43.834 43.834" enable-background="new 53.417 0 43.834 43.834"
	 xml:space="preserve">
<path fill="#56CD7A" d="M94.734,18.624c1.674,1.673,1.674,4.381,0,6.054L78.433,40.979c-1.67,1.67-4.379,1.672-6.051,0
	L56.081,24.678c-1.672-1.673-1.672-4.383,0-6.054l16.301-16.3c1.672-1.674,4.381-1.674,6.051,0L94.734,18.624z"/>
<text transform="matrix(1 0 0 1 53.416 53.2705)" fill="#333333" font-family="'MicrosoftYaHei'" font-size="11">排他网关 </text>
<path fill="#FFFFFF" d="M67.732,15.064c0.439-0.439,1.152-0.439,1.592-0.001l13.612,13.612c0.438,0.439,0.438,1.152-0.001,1.592l0,0
	c-0.439,0.439-1.152,0.439-1.591,0.001L67.731,16.656C67.293,16.217,67.293,15.504,67.732,15.064L67.732,15.064z"/>
<path fill="#FFFFFF" d="M82.936,15.064c0.439,0.439,0.439,1.152,0.001,1.592L69.324,30.269c-0.439,0.438-1.152,0.438-1.592-0.001
	l0,0c-0.439-0.439-0.439-1.152-0.001-1.592l13.613-13.612C81.783,14.625,82.496,14.625,82.936,15.064L82.936,15.064z"/>
</svg>
