<svg version="1.1" id="图层_1" xmlns="http://www.w3.org/2000/svg" xmlns:xlink="http://www.w3.org/1999/xlink" x="0px" y="0px"
	 width="43.834px" height="43.834px" viewBox="0 0 43.834 43.834" enable-background="new 0 0 43.834 43.834" xml:space="preserve">
<path fill="#56CD7A" d="M41.317,18.624c1.674,1.674,1.674,4.381,0,6.055l-16.302,16.3c-1.67,1.67-4.379,1.672-6.051,0l-16.301-16.3
	c-1.672-1.674-1.672-4.383,0-6.055L18.965,2.325c1.672-1.675,4.381-1.675,6.051,0L41.317,18.624z"/>
<text transform="matrix(1 0 0 1 -4.882813e-004 53.2705)" fill="#333333" font-family="'MicrosoftYaHei'" font-size="11">并行网关 </text>
<path fill="#FFFFFF" d="M11.167,22.541c0-0.622,0.504-1.125,1.125-1.126h19.25c0.621,0.001,1.127,0.505,1.127,1.127l0,0
	c0,0.621-0.506,1.125-1.125,1.125l-19.252,0.001C11.67,23.666,11.167,23.162,11.167,22.541L11.167,22.541z"/>
<path fill="#FFFFFF" d="M21.917,11.791c0.622,0,1.126,0.504,1.126,1.125v19.251c0,0.621-0.504,1.125-1.125,1.125l0,0
	c-0.622,0-1.126-0.504-1.127-1.125l0.001-19.251C20.792,12.294,21.295,11.791,21.917,11.791L21.917,11.791z"/>
</svg>
