<svg version="1.1" id="图层_1" xmlns="http://www.w3.org/2000/svg" xmlns:xlink="http://www.w3.org/1999/xlink" x="0px" y="0px"
        width="42.5px" height="42.5px" viewBox="56.349 219.91 42.5 42.5" enable-background="new 56.349 219.91 42.5 42.5"
        xml:space="preserve">
   <circle fill="#38A9FF" cx="77.598" cy="241.139" r="20.878"/>
   <g>
       <g>
           <g>
               <defs>
                   <rect id="SVGID_19_" x="66.293" y="231.382" width="21.727" height="21.751"/>
               </defs>
               <clipPath id="SVGID_2_">
                   <use xlink:href="#SVGID_19_"  overflow="visible"/>
               </clipPath>
               <path clip-path="url(#SVGID_2_)" fill="#FFFFFF" d="M70.633,250.662c-1.049,0-1.9-0.853-1.9-1.898c0-1.048,0.854-1.898,1.9-1.898
                   s1.898,0.852,1.898,1.898S71.68,250.662,70.633,250.662L70.633,250.662z M70.633,247.949c-0.449,0-0.814,0.365-0.814,0.813
                   s0.365,0.813,0.814,0.813c0.447,0,0.813-0.365,0.813-0.813S71.08,247.949,70.633,247.949L70.633,247.949z"/>
           </g>
           <g>
               <defs>
                   <rect id="SVGID_21_" x="66.293" y="231.382" width="21.727" height="21.751"/>
               </defs>
               <clipPath id="SVGID_4_">
                   <use xlink:href="#SVGID_21_"  overflow="visible"/>
               </clipPath>
               <path clip-path="url(#SVGID_4_)" fill="#FFFFFF" d="M70.642,253.105c-1.01,0.002-1.987-0.352-2.765-0.996
                   c-0.896-0.732-1.461-1.793-1.567-2.945c-0.114-1.151,0.237-2.301,0.978-3.19c0.178-0.215,0.375-0.411,0.59-0.591l8.557-7.057
                   l0.691,0.836l-8.557,7.057c-0.162,0.135-0.311,0.284-0.445,0.445c-0.555,0.669-0.817,1.531-0.731,2.396
                   c0.082,0.865,0.506,1.662,1.179,2.214c0.668,0.555,1.53,0.817,2.395,0.732c0.865-0.081,1.662-0.506,2.215-1.178l7.055-8.557
                   l0.836,0.69l-7.053,8.556c-0.734,0.896-1.795,1.459-2.947,1.567C70.926,253.099,70.783,253.105,70.642,253.105L70.642,253.105z"
                   />
           </g>
           <g>
               <defs>
                   <rect id="SVGID_23_" x="66.293" y="231.382" width="21.727" height="21.751"/>
               </defs>
               <clipPath id="SVGID_6_">
                   <use xlink:href="#SVGID_23_"  overflow="visible"/>
               </clipPath>
               <path clip-path="url(#SVGID_6_)" fill="#FFFFFF" d="M84.443,253.105c-0.797,0-1.564-0.267-2.199-0.77
                   c-0.209-0.169-0.399-0.359-0.569-0.569l-4.273-5.385l0.851-0.675l4.272,5.382c0.113,0.142,0.257,0.286,0.398,0.399
                   c0.512,0.406,1.161,0.592,1.811,0.516c0.648-0.073,1.242-0.403,1.646-0.915c0.845-1.063,0.666-2.615-0.397-3.461l-5.711-4.535
                   l0.675-0.851l5.713,4.535c1.53,1.217,1.789,3.455,0.573,4.984c-0.584,0.739-1.438,1.214-2.373,1.318
                   C84.719,253.098,84.58,253.105,84.443,253.105L84.443,253.105z M70.479,238.57c-0.792,0.002-1.553-0.313-2.111-0.875
                   l-1.918-1.918c-0.211-0.213-0.211-0.558,0-0.77l3.453-3.453c0.213-0.212,0.557-0.212,0.768,0l1.92,1.918
                   c0.564,0.564,0.875,1.313,0.875,2.111c0,0.798-0.311,1.548-0.875,2.111C72.031,238.257,71.271,238.57,70.479,238.57
                   L70.479,238.57z M67.6,235.392l1.535,1.536c0.355,0.357,0.839,0.559,1.344,0.557c0.507,0,0.982-0.197,1.344-0.557
                   c0.358-0.359,0.557-0.836,0.557-1.344s-0.197-0.984-0.557-1.344l-1.535-1.535L67.6,235.392z"/>
           </g>
       </g>
       <path fill="#FFFFFF" d="M75.058,240.706c-0.146,0.001-0.282-0.058-0.384-0.159l-2.854-2.852c-0.141-0.137-0.197-0.338-0.146-0.528
           c0.05-0.188,0.197-0.337,0.388-0.388c0.19-0.049,0.392,0.008,0.527,0.147l2.852,2.853c0.156,0.155,0.202,0.389,0.119,0.592
           C75.476,240.574,75.276,240.706,75.058,240.706L75.058,240.706z M82.029,243.336c-3.293,0-5.969-2.678-5.969-5.971
           s2.676-5.971,5.969-5.971c0.521,0,1.041,0.068,1.545,0.203c0.289,0.077,0.461,0.374,0.385,0.665
           c-0.036,0.138-0.127,0.257-0.252,0.329s-0.272,0.092-0.412,0.057c-0.413-0.111-0.838-0.168-1.266-0.168
           c-2.693,0-4.885,2.19-4.885,4.885c0,2.693,2.191,4.885,4.885,4.885c2.694,0,4.885-2.19,4.885-4.885
           c0-0.426-0.057-0.853-0.166-1.267c-0.071-0.288,0.101-0.581,0.388-0.657s0.58,0.092,0.662,0.379c0.135,0.504,0.2,1.023,0.2,1.545
           C87.998,240.658,85.32,243.336,82.029,243.336L82.029,243.336z"/>
       <path fill="#FFFFFF" d="M83.949,238.703c-0.871,0-1.688-0.338-2.305-0.953c-0.613-0.61-0.955-1.438-0.953-2.303
           c0-0.873,0.338-1.69,0.955-2.303l1.404-1.406c0.213-0.211,0.557-0.211,0.768,0c0.211,0.213,0.211,0.557,0,0.77l-1.406,1.405
           c-0.408,0.405-0.639,0.959-0.635,1.534c0,0.58,0.225,1.125,0.635,1.535c0.406,0.408,0.961,0.637,1.537,0.637h0.002
           c0.574,0,1.125-0.229,1.531-0.637l1.406-1.406c0.137-0.142,0.338-0.197,0.527-0.147c0.188,0.05,0.338,0.198,0.389,0.388
           c0.049,0.189-0.008,0.392-0.148,0.527l-1.406,1.406c-0.606,0.613-1.436,0.957-2.299,0.955L83.949,238.703z"/>
   </g>
   </svg>