<svg version="1.1" id="图层_1" xmlns="http://www.w3.org/2000/svg" xmlns:xlink="http://www.w3.org/1999/xlink" x="0px" y="0px"
        width="42.5px" height="42.5px" viewBox="-0.151 219.91 42.5 42.5" enable-background="new -0.151 219.91 42.5 42.5"
        xml:space="preserve">
   <circle fill="#38A9FF" cx="21.098" cy="241.139" r="20.878"/>
   <g>
       <g>
           <defs>
               <rect id="SVGID_15_" x="10.479" y="231.41" width="21.035" height="22.09"/>
           </defs>
           <clipPath id="SVGID_2_">
               <use xlink:href="#SVGID_15_"  overflow="visible"/>
           </clipPath>
           <path clip-path="url(#SVGID_2_)" fill="#FFFFFF" d="M15.477,245.974c0.294,0,0.588,0.146,0.883,0.146h0.146
               c0.441,0,0.736-0.294,0.736-0.589c0-0.441-0.295-0.735-0.59-0.735c-0.293,0-0.588,0-0.882-0.146
               c-2.941-0.589-3.823-1.472-3.823-1.765v-2.354c0.734,0.441,1.617,0.735,2.941,1.029c0.441,0.146,1.029,0.146,1.471,0.294h0.146
               c0.294,0,0.736-0.294,0.736-0.588c0-0.441-0.295-0.735-0.59-0.883c-0.439,0-1.029-0.147-1.322-0.294
               c-2.501-0.441-3.383-1.177-3.383-1.472v-1.911c1.765,1.03,5,1.471,8.088,1.471c3.09,0,6.326-0.44,8.091-1.471v1.177
               c0,0.44,0.294,0.734,0.734,0.734c0.442,0,0.736-0.294,0.736-0.734v-2.942c-0.147-2.5-5-3.529-9.562-3.529
               c-4.559,0-9.559,1.029-9.559,3.383v12.648c0,2.06,4.118,2.942,5.883,3.089h0.146c0.294,0,0.736-0.294,0.736-0.589
               c0-0.44-0.295-0.734-0.59-0.882c-3.382-0.441-4.559-1.47-4.559-1.765v-2.501C13.123,245.385,14.447,245.826,15.477,245.974
               L15.477,245.974z M20.035,232.883c5.296,0,8.091,1.323,8.091,1.912c0,0.588-2.795,1.912-8.091,1.912
               c-5.293,0-7.941-1.324-8.088-1.912C12.094,234.206,14.742,232.883,20.035,232.883L20.035,232.883z M20.035,232.883"/>
       </g>
       <path fill="#FFFFFF" d="M31.509,242.442c-0.146-1.765-4.118-2.353-6.472-2.353s-6.472,0.588-6.472,2.501v8.383
           c0,1.911,4.118,2.501,6.472,2.501c2.5,0,6.472-0.59,6.472-2.501V242.442C31.509,242.591,31.509,242.591,31.509,242.442
           L31.509,242.442z M20.035,244.355c1.472,0.588,3.531,0.882,5.002,0.882s3.677-0.147,5-0.882v2.5
           c-0.146,0.147-0.734,0.588-2.058,0.883h-0.148c-1.617,0.294-3.971,0.294-5.589,0c-1.471-0.295-2.207-0.735-2.207-0.735V244.355z
            M25.037,241.561c2.942,0,4.707,0.735,5,1.03c-0.293,0.294-2.058,1.029-5,1.029c-3.236,0-4.854-0.735-5.002-0.883
           C20.184,242.296,21.801,241.561,25.037,241.561L25.037,241.561z M25.037,252.003c-3.236,0-4.854-0.735-5.002-1.029v-2.501
           c0.59,0.295,1.178,0.441,2.06,0.589c0.883,0.147,1.912,0.295,3.089,0.295c1.03,0,2.207-0.147,2.942-0.295h0.146
           c0.735-0.147,1.472-0.294,1.912-0.589v2.501C29.891,251.268,28.272,252.003,25.037,252.003L25.037,252.003z M25.037,252.003"/>
   </g>
   </svg>