<svg version="1.1" id="图层_1" xmlns="http://www.w3.org/2000/svg" xmlns:xlink="http://www.w3.org/1999/xlink" x="0px" y="0px"
        width="42.5px" height="42.5px" viewBox="113.015 219.91 42.5 42.5" enable-background="new 113.015 219.91 42.5 42.5"
        xml:space="preserve">
   <circle fill="#38A9FF" cx="134.264" cy="241.139" r="20.878"/>
   <path fill="#FFFFFF" d="M128.477,230.558h-3.722c-0.025,0-0.049,0.006-0.074,0.008c-0.025-0.002-0.049-0.008-0.074-0.008
       c-0.474,0-0.856,0.384-0.856,0.856v3.722c0,0.474,0.383,0.856,0.856,0.856c0.473,0,0.856-0.383,0.856-0.856v-2.865h3.014
       c0.474,0,0.856-0.384,0.856-0.856S128.95,230.558,128.477,230.558z"/>
   <path fill="#FFFFFF" d="M143.831,230.558c-0.025,0-0.049,0.006-0.074,0.008c-0.025-0.002-0.049-0.008-0.074-0.008h-3.722
       c-0.474,0-0.856,0.384-0.856,0.856s0.383,0.856,0.856,0.856h3.014v2.865c0,0.474,0.384,0.856,0.856,0.856
       c0.474,0,0.856-0.383,0.856-0.856v-3.722C144.688,230.941,144.305,230.558,143.831,230.558z"/>
   <path fill="#FFFFFF" d="M128.477,251.192h-3.722c-0.025,0-0.049-0.006-0.074-0.008c-0.025,0.002-0.049,0.008-0.074,0.008
       c-0.474,0-0.856-0.384-0.856-0.856v-3.722c0-0.474,0.383-0.856,0.856-0.856c0.473,0,0.856,0.383,0.856,0.856v2.865h3.014
       c0.474,0,0.856,0.384,0.856,0.856S128.95,251.192,128.477,251.192z"/>
   <path fill="#FFFFFF" d="M143.831,251.192c-0.025,0-0.049-0.006-0.074-0.008c-0.025,0.002-0.049,0.008-0.074,0.008h-3.722
       c-0.474,0-0.856-0.384-0.856-0.856s0.383-0.856,0.856-0.856h3.014v-2.865c0-0.474,0.384-0.856,0.856-0.856
       c0.474,0,0.856,0.383,0.856,0.856v3.722C144.688,250.809,144.305,251.192,143.831,251.192z"/>
   <circle fill="#FFFFFF" cx="134.265" cy="240.834" r="3.583"/>
   </svg>