<svg version="1.1" id="图层_1" xmlns="http://www.w3.org/2000/svg" xmlns:xlink="http://www.w3.org/1999/xlink" x="0px" y="0px"
        width="42.5px" height="42.5px" viewBox="166.202 219.598 42.5 42.5" enable-background="new 166.202 219.598 42.5 42.5"
        xml:space="preserve">
   <circle fill="#38A9FF" cx="187.451" cy="240.827" r="20.878"/>
   <g>
       <g>
           <defs>
               <rect id="SVGID_17_SLT" x="174.703" y="226.628" width="24.984" height="25.551"/>
           </defs>
           <clipPath id="SVGID_2_SLT">
               <use xlink:href="#SVGID_17_SLT"  overflow="visible"/>
           </clipPath>
           <path clip-path="url(#SVGID_2_SLT)" fill="#FFFFFF" d="M199.111,235.713l-11.046-8.072c-0.284-0.142-0.567-0.283-0.851-0.283
               s-0.566,0.142-0.851,0.283l-11.188,8.072c-0.425,0.283-0.566,0.992-0.425,1.558l4.25,13.03c0.141,0.566,0.708,0.991,1.416,0.991
               l0.283,0.143l0.142-0.143h13.029c0.567,0,1.134-0.425,1.417-0.991l4.248-13.03C199.82,236.705,199.536,235.996,199.111,235.713
               L199.111,235.713z M190.189,239.82l-1.983-10.339l9.489,6.939L190.189,239.82z M186.648,229.057l1.982,10.764l-11.896-3.54
               L186.648,229.057z M176.31,237.696l11.896,3.54l-8.072,8.64L176.31,237.696z M182.258,249.876l7.224-7.79l3.682,7.79H182.258z
                M194.297,249.168l-3.683-7.932l7.364-3.257L194.297,249.168z M194.297,249.168"/>
       </g>
       <path fill="#FFFFFF" d="M187.498,240.812c0,0.759,0.405,1.46,1.062,1.841c0.658,0.378,1.468,0.378,2.125,0
           c0.657-0.381,1.063-1.082,1.063-1.841s-0.405-1.46-1.063-1.84c-0.657-0.379-1.467-0.379-2.125,0
           C187.903,239.352,187.498,240.053,187.498,240.812L187.498,240.812z M187.498,240.812"/>
       <path fill="#FFFFFF" d="M184.665,229.481c0,1.174,0.952,2.125,2.124,2.125c1.174,0,2.126-0.951,2.126-2.125
           c0-0.759-0.406-1.46-1.063-1.84c-0.657-0.379-1.468-0.379-2.125,0C185.07,228.021,184.665,228.723,184.665,229.481L184.665,229.481
           z M184.665,229.481"/>
       <path fill="#FFFFFF" d="M179.001,249.31c0,0.759,0.405,1.461,1.062,1.84c0.657,0.38,1.467,0.38,2.124,0
           c0.658-0.379,1.063-1.081,1.063-1.84c0-0.76-0.404-1.461-1.063-1.84c-0.657-0.38-1.467-0.38-2.124,0
           C179.406,247.849,179.001,248.55,179.001,249.31L179.001,249.31z M179.001,249.31"/>
       <path fill="#FFFFFF" d="M189.623,237.979c-1.558,0-2.834,1.274-2.834,2.832c0,1.559,1.276,2.832,2.834,2.832
           s2.833-1.273,2.833-2.832C192.456,239.254,191.181,237.979,189.623,237.979L189.623,237.979z M189.623,242.229
           c-0.851,0-1.417-0.567-1.417-1.417s0.566-1.416,1.417-1.416c0.85,0,1.416,0.566,1.416,1.416S190.33,242.229,189.623,242.229
           L189.623,242.229z M189.623,229.481c0-1.558-1.275-2.832-2.834-2.832c-1.557,0-2.831,1.274-2.831,2.832
           c0,1.559,1.274,2.833,2.831,2.833C188.348,232.314,189.623,231.04,189.623,229.481L189.623,229.481z M185.374,229.481
           c0-0.85,0.565-1.416,1.415-1.416c0.852,0,1.417,0.566,1.417,1.416s-0.565,1.416-1.417,1.416
           C185.939,230.897,185.374,230.331,185.374,229.481L185.374,229.481z M181.125,246.477c-1.559,0-2.833,1.275-2.833,2.833
           s1.274,2.832,2.833,2.832c1.558,0,2.833-1.274,2.833-2.832S182.683,246.477,181.125,246.477L181.125,246.477z M181.125,250.726
           c-0.85,0-1.416-0.566-1.416-1.416c0-0.851,0.566-1.416,1.416-1.416c0.849,0,1.417,0.565,1.417,1.416
           C182.542,250.159,181.833,250.726,181.125,250.726L181.125,250.726z M181.125,250.726"/>
   </g>
   </svg>