<svg version="1.1" id="图层_1" xmlns="http://www.w3.org/2000/svg" xmlns:xlink="http://www.w3.org/1999/xlink" x="0px" y="0px"
        width="42.5px" height="42.5px" viewBox="219.702 219.598 42.5 42.5" enable-background="new 219.702 219.598 42.5 42.5"
        xml:space="preserve">
   <circle fill="#38A9FF" cx="240.951" cy="240.827" r="20.878"/>
   <g>
       <g>
           <path fill="#FFFFFF" d="M242.524,253.55c-1.736,0-3.119-1.418-3.119-3.119c0-1.702,1.417-3.12,3.119-3.12
               c1.169,0,2.234,0.638,2.801,1.702l0.177,0.354l0.466-0.186c2.091-1.101,4.026-5.503,4.239-7.877c0,0,0.315-0.681,0.775-0.822
               c0.532-0.178,1.1,0.602,1.1,0.602c-0.142,3.297-2.894,8.992-6.438,10.304l-0.178,0.072l-0.07,0.177
               C244.935,252.805,243.801,253.55,242.524,253.55L242.524,253.55z M234.814,250.599c-2.248-1.8-3.675-4.608-4.336-7.474
               c-0.281-1.219-0.359-3.127-0.181-3.835l0.033-0.167l-0.21-0.196c-0.567-0.603-0.789-1.389-0.789-2.169
               c0-1.737,1.297-3.047,2.997-3.047c1.703,0,3.064,1.329,3.064,3.031c0,1.7-1.282,2.913-3.003,3.142l-0.461-0.012l-0.083,0.35
               c-0.071,0.391,0.007,1.997,0.382,3.372c0.584,2.142,1.715,4.142,3.168,5.488c0,0,0.729,0.595,0.623,1.126
               c-0.071,0.532-0.625,0.5-0.625,0.5L234.814,250.599z M249.609,238.198c-1.736,0-3.12-1.418-3.12-3.12
               c0-0.39,0.071-0.78,0.214-1.134l0.188-0.438l-0.375-0.237c-0.898-0.475-2.31-0.79-3.643-1.02
               c-1.236-0.213-4.589,0.654-5.264,0.832c0,0-1.091,0.409-1.445-0.124c-0.354-0.531,0.625-1.25,0.625-1.25
               c1.028-0.39,4.23-1.146,5.918-1.083c1.842,0.068,3.853,0.483,5.377,1.512l0.178,0.105l0.213-0.07
               c0.354-0.143,0.744-0.213,1.134-0.213c1.737,0,3.12,1.418,3.12,3.119C252.729,236.78,251.312,238.198,249.609,238.198
               L249.609,238.198z M250.326,239.344"/>
       </g>
   </g>
   </svg>